<svg xmlns="http://www.w3.org/2000/svg" width="24" height="24" viewBox="0 0 24 24">
  <g id="ins" transform="translate(-0.334 -0.333)">
    <rect id="Rectangle_1784" data-name="Rectangle 1784" width="24" height="24" transform="translate(0.334 0.334)" fill="none"/>
    <g id="instagram_4_" data-name="instagram (4)" transform="translate(2.407 2.407)">
      <path id="Path_4902" data-name="Path 4902" d="M-1180.521-24.018c-1.88-1.88-1.665-4.393-1.665-8.254,0-3.773-.245-6.346,1.665-8.255a5.93,5.93,0,0,1,4.166-1.605c1.828-.081,6.352-.085,8.179,0,3.737.172,5.607,2.285,5.77,5.77.081,1.829.086,6.351,0,8.179-.136,2.953-1.523,4.6-3.363,5.31-1.352.524-2.672.521-6.5.521-.773,0-1.5.011-2.179.011C-1177.047-22.342-1179-22.5-1180.521-24.018Zm15.236-1.262c1.229-1.236,1.151-2.9,1.153-6.993,0-2.649-.011-2.963-.058-4.009-.208-4.587-3.666-4.125-8.074-4.125l-.037-.024c-2.653,0-2.964.012-4.016.05-4.588.234-4.118,3.526-4.118,8.1,0,3.377-.252,5.6,1.142,6.992,1.209,1.214,2.869,1.153,7,1.153C-1168.273-24.141-1166.537-24.029-1165.285-25.28Zm-12.076-6.992a5.094,5.094,0,0,1,5.094-5.094,5.093,5.093,0,0,1,5.094,5.094,5.094,5.094,0,0,1-5.094,5.094A5.094,5.094,0,0,1-1177.361-32.272Zm1.788,0a3.3,3.3,0,0,0,3.307,3.306,3.3,3.3,0,0,0,3.306-3.306,3.306,3.306,0,0,0-3.306-3.307A3.306,3.306,0,0,0-1175.573-32.272Zm7.412-5.3a1.19,1.19,0,0,1,1.19-1.19,1.19,1.19,0,0,1,1.191,1.19,1.19,1.19,0,0,1-1.191,1.19A1.19,1.19,0,0,1-1168.161-37.567Z" transform="translate(1182.196 42.195)" fill="#fff"/>
    </g>
  </g>
</svg>
