<svg xmlns="http://www.w3.org/2000/svg" width="350" height="88" viewBox="0 0 350 88">
  <g id="mediaforcelogo" transform="translate(-90 -190.904)">
    <rect id="Rectangle_183" data-name="Rectangle 183" width="350" height="88" transform="translate(90 190.904)" fill="none"/>
    <path id="Path_11725" data-name="Path 11725" d="M40.341-44.076v26.549H31.515V-29.51L25.667-17.527H17.523L11.281-29.654v12.126H2.419V-44.076H12.536l9.041,18.261,8.9-18.261ZM69.473-26.5H50.35a6.015,6.015,0,0,0,1.7,3.713,5.357,5.357,0,0,0,3.964,1.453,6.784,6.784,0,0,0,3.641-.987,3.316,3.316,0,0,0,1.6-3.032h8.216A7.015,7.015,0,0,1,65.9-19q-3.57,2.188-9.92,2.188a18.337,18.337,0,0,1-7.1-1.327,12.07,12.07,0,0,1-5.059-3.749,8.837,8.837,0,0,1-1.866-5.543A8.946,8.946,0,0,1,43.8-33.008a11.791,11.791,0,0,1,5.059-3.731,18.693,18.693,0,0,1,7.122-1.309,17.87,17.87,0,0,1,7.05,1.292,10.894,10.894,0,0,1,4.718,3.641,9.389,9.389,0,0,1,1.722,5.507v.179h0Zm-13.49-7.175a5.686,5.686,0,0,0-3.624,1,5.1,5.1,0,0,0-1.722,2.8h10.4a4.925,4.925,0,0,0-1.579-2.8A5.252,5.252,0,0,0,55.983-33.672Zm33.258-10.4h8.252V-17.6H89.958l-.431-2.332q-3.05,2.942-9.543,2.8a8.814,8.814,0,0,1-4.9-1.381,9.582,9.582,0,0,1-3.354-3.767,11.857,11.857,0,0,1-1.256-5.328v-.215a11.126,11.126,0,0,1,1.256-4.843,9.69,9.69,0,0,1,3.337-3.713A8.736,8.736,0,0,1,79.984-37.8q6.207,0,9.256,2.8Zm-5.094,22.1a4.775,4.775,0,0,0,2.6-.735,5.226,5.226,0,0,0,1.83-1.955,5.4,5.4,0,0,0,.664-2.619v-.108a5.627,5.627,0,0,0-1.417-4.018,4.819,4.819,0,0,0-3.677-1.507,4.97,4.97,0,0,0-3.929,1.561A5.563,5.563,0,0,0,78.8-27.645a6.2,6.2,0,0,0,1.4,4.072A4.9,4.9,0,0,0,84.146-21.976Zm23.463-22.1H99.358v5.417h8.252Zm0,26.549H99.358V-37.618h8.252Zm14.925-20.414a23.554,23.554,0,0,1,9.22,1.722,6.115,6.115,0,0,1,4.09,6.063v12.629h-7.821l-.61-2.547v-.179q-.9,1.614-3.785,2.368a24.9,24.9,0,0,1-6.3.753,13.424,13.424,0,0,1-5.453-1.2q-2.727-1.2-2.727-5.041,0-6.063,7.929-6.063,5.094,0,7.1-.09a9.4,9.4,0,0,0,2.655-.359,1.045,1.045,0,0,0,.682-.987v-.466q-.036-1.184-1.561-1.74a10.061,10.061,0,0,0-3.462-.556,7.831,7.831,0,0,0-3.426.753,2.324,2.324,0,0,0-1.417,2.188h-8.288a5.2,5.2,0,0,1,2.153-4.359,12.7,12.7,0,0,1,5.148-2.26A28.553,28.553,0,0,1,122.534-37.941ZM122-22.371a5.97,5.97,0,0,0,4.018-1.184,4.159,4.159,0,0,0,1.471-3.014v-.5a12.011,12.011,0,0,1-4.341.574,14.857,14.857,0,0,0-4.323.431,1.655,1.655,0,0,0-1.274,1.579,1.924,1.924,0,0,0,1.13,1.6A7.784,7.784,0,0,0,122-22.371Zm31.715-12.413v5.633h-4.054v11.624h-8.252V-29.152h-3.875v-5.633h3.875v-2.583q0-4.269,3.014-5.812a14.664,14.664,0,0,1,6.781-1.543,17.479,17.479,0,0,1,2.368.144v6.565a10.91,10.91,0,0,0-2.583.215,1.492,1.492,0,0,0-1.058.843,5.546,5.546,0,0,0-.269,2.027v.144Zm15.319-3.121a17.3,17.3,0,0,1,7,1.363,11.6,11.6,0,0,1,4.879,3.785,9.029,9.029,0,0,1,1.758,5.435,8.914,8.914,0,0,1-1.776,5.4,11.751,11.751,0,0,1-4.879,3.785,17.176,17.176,0,0,1-6.978,1.363,17.768,17.768,0,0,1-7-1.381,13.124,13.124,0,0,1-5.22-3.8,8.336,8.336,0,0,1-1.955-5.364,8.384,8.384,0,0,1,1.955-5.4,13.145,13.145,0,0,1,5.2-3.8A17.729,17.729,0,0,1,169.03-37.905Zm0,16a5.965,5.965,0,0,0,2.673-.61,4.77,4.77,0,0,0,1.991-1.848,5.584,5.584,0,0,0,.753-2.96,5.584,5.584,0,0,0-.753-2.96,4.77,4.77,0,0,0-1.991-1.848,5.965,5.965,0,0,0-2.673-.61,6.428,6.428,0,0,0-2.745.628,5.51,5.51,0,0,0-2.206,1.848,4.97,4.97,0,0,0-.861,2.942,4.97,4.97,0,0,0,.861,2.942,5.51,5.51,0,0,0,2.206,1.848A6.428,6.428,0,0,0,169.03-21.9Zm23.14-11.768q2.87-3.157,9.077-3.8v6.243h-4.772a3.484,3.484,0,0,0-3.229,1.668,8.371,8.371,0,0,0-1,4.359v7.678h-8.252V-37.08h7.5ZM202.4-27.178a8.908,8.908,0,0,1,1.794-5.435A11.867,11.867,0,0,1,209.1-36.4a17.026,17.026,0,0,1,6.888-1.363,17.01,17.01,0,0,1,6.332,1.094,11.111,11.111,0,0,1,4.431,3.067,10.056,10.056,0,0,1,2.224,4.556h-8.252a4.511,4.511,0,0,0-1.65-2.583,4.844,4.844,0,0,0-3.05-.969,5.113,5.113,0,0,0-3.8,1.489,5.347,5.347,0,0,0-1.471,3.928,5.452,5.452,0,0,0,1.435,3.893,4.933,4.933,0,0,0,3.767,1.525,4.9,4.9,0,0,0,3.085-.969,4.5,4.5,0,0,0,1.65-2.547h8.252a8.606,8.606,0,0,1-2.153,4.413,12.14,12.14,0,0,1-4.574,3.121,16.343,16.343,0,0,1-6.225,1.148,16.745,16.745,0,0,1-6.852-1.381,12.139,12.139,0,0,1-4.933-3.8A8.8,8.8,0,0,1,202.4-27.178Zm54.927.682H238.2a6.015,6.015,0,0,0,1.7,3.713,5.357,5.357,0,0,0,3.964,1.453,6.784,6.784,0,0,0,3.641-.987,3.316,3.316,0,0,0,1.6-3.032h8.216a7.015,7.015,0,0,1-3.57,6.35q-3.57,2.188-9.92,2.188a18.337,18.337,0,0,1-7.1-1.327,12.069,12.069,0,0,1-5.059-3.749,8.837,8.837,0,0,1-1.866-5.543,8.946,8.946,0,0,1,1.848-5.579,11.791,11.791,0,0,1,5.059-3.731,18.693,18.693,0,0,1,7.122-1.309,17.869,17.869,0,0,1,7.05,1.292,10.894,10.894,0,0,1,4.718,3.641,9.388,9.388,0,0,1,1.722,5.507v.179h0Zm-13.49-7.175a5.686,5.686,0,0,0-3.624,1,5.1,5.1,0,0,0-1.722,2.8h10.4a4.925,4.925,0,0,0-1.579-2.8A5.252,5.252,0,0,0,243.833-33.672Z" transform="translate(181.445 254.021)" fill="#fff"/>
    <g id="Group_13" data-name="Group 13" transform="translate(90.806 192.114)">
      <path id="Path_11160" data-name="Path 11160" d="M845.509,469.677h2.915c-.409.671-1.245.009-1.435.74-.009.085-.162.169-.127.171.4.024.8,0,1.191.023.326.021.656.077.417.547-.072.695.012,1.186.939,1.141.552-.027,1.056.461,1.666.367.053-.008.164.041.164.061-.034,1.238,1.268.808,1.75,1.4a.579.579,0,0,0,.317.158c.344.072.812-.107.985.322a3.843,3.843,0,0,1,.071,1.732c-.026.372-.359.386-.636.365-.579-.043-.879.165-.819.784a1.382,1.382,0,0,1-.051.435c-1.327-.062-.909,1.748-2.077,1.935a1.453,1.453,0,0,0-.829.919,1.037,1.037,0,0,1-.74.747c-.511-.172-1.026.081-1.546-.028-.455-.1-.842-.252-.96-.736a.887.887,0,0,0-.773-.789c-.118-.017-.009.054-.082-.032a17.849,17.849,0,0,0-2.094-2.093c-.041-.035-.027-.133-.066-.168-.748-.67-1.407-1.428-2.136-2.116-.04-.038-.142-.025-.168-.067-.554-.909-1.547-1.4-2.138-2.276-.032-.048-.018-.157-.054-.17-.976-.375-1.343-1.406-2.152-1.981s-1.274-1.5-2.13-2.038c-.127-.079-.1-.343-.123-.527-.18-1.465-.555-1.807-2-1.821a1.47,1.47,0,0,1-.454-.067,3.994,3.994,0,0,1-1.841-1.979c-.371-.638-1.149-1.157-.892-2.124.039-.148-.625-.147-.907-.363a1.1,1.1,0,0,1-.441-1.424c.323-.545.772.156,1.19.184,1.53.9,2.834,2.135,4.384,3.011a31.6,31.6,0,0,0,6.607,2.926,29.341,29.341,0,0,0,4.741,1.072c.577.287,1.291,0,1.832.437.138.288.026.54-.26.529-.722-.027-1.408.434-2.092.132C845.142,468.925,844.858,469.942,845.509,469.677Z" transform="translate(-796.779 -406.147)" fill="#2f1e4a"/>
      <path id="Path_11161" data-name="Path 11161" d="M662,464.418c-.155-1.508-.812-2.913-.91-4.432a.266.266,0,0,1,.286,0c.4.561,1.007.986,1.032,1.778.011.341.319.428.615.429a11.551,11.551,0,0,0,4.652-.926c.2-.084.38-.272.586-.255,1.469.121,2.788-.7,4.24-.654a1.194,1.194,0,0,0,1.145-.579c.5-.722,1.414-.675,2.171-.849a19.905,19.905,0,0,1,2.189-.342c.677-.078,1.358-.082,1.7-.845.071-.161.293-.214.474-.262a1.236,1.236,0,0,1,.456-.066c1.755.209,3.326-.491,4.979-.879A22.236,22.236,0,0,1,691,455.441c.456.718-.333.74-.589,1.061a1.747,1.747,0,0,0-.832.558,1.046,1.046,0,0,1-.2.147.728.728,0,0,0-.516.46.819.819,0,0,1-.283.283,10.852,10.852,0,0,0-2.141,1.032c-1.666.7-3,1.976-4.63,2.7a16.691,16.691,0,0,1-3.9,1.579c-.235.04-.581.038-.638.3-.3,1.388-1.665,1.362-2.557,1.953-.206.137-.457.193-.5.472-.146.864-.755,1.047-1.5,1.024s-1.482-.078-1.667.959c-.07.394-.546.43-.9.537a3.835,3.835,0,0,0-2.226,1.1,4.352,4.352,0,0,1-2,1.029c-.8.257-1.184-.5-1.739-.832a11.449,11.449,0,0,1-1.08-2.414h0A14.129,14.129,0,0,1,662,464.418Z" transform="translate(-660.652 -402.01)" fill="#592d73"/>
      <path id="Path_11162" data-name="Path 11162" d="M966.39,358.406c-1.489,1.89-3.508,3.168-5.365,4.632-.429.458-.848.936-1.571.856-.483-.2-.509-.564-.374-.993a1.231,1.231,0,0,1-1.107-.546.846.846,0,0,1-.206-.6c.245-1.411-.732-2.194-1.566-3.028a2.18,2.18,0,0,1-.732-1.334,2.453,2.453,0,0,0-.8-1.523c-.826-.7-.923-1.7-1.349-2.554-.138-.278-.173-.586-.551-.651-.819-.14-.992-.733-.972-1.437.023-.788.009-1.515-.859-1.945a1.5,1.5,0,0,1-.667-1.075,9.252,9.252,0,0,0-1.924-3.391c-.9-1.32-1.4-2.848-2.179-4.236a21.827,21.827,0,0,0-1.607-1.976,2.764,2.764,0,0,1-.077-1.092.713.713,0,0,1,.185-.436.583.583,0,0,1,.833.064c-.116.679.233,1.044.809,1.34a12,12,0,0,1,3.183,2.844c1.1,1.192,1.966,2.616,3.407,3.474a1.6,1.6,0,0,1,.767.778,3.705,3.705,0,0,0,2.132,2.155,1.926,1.926,0,0,1,.978,1.07,2.685,2.685,0,0,0,1.529,1.622,2.877,2.877,0,0,1,1.6,1.7,1.9,1.9,0,0,0,1.061,1.094,3.382,3.382,0,0,1,1.956,1.973,1.738,1.738,0,0,0,1.118,1.032A5.57,5.57,0,0,1,966.39,358.406Z" transform="translate(-891.567 -305.441)" fill="#5b3f8f"/>
      <path id="Path_11163" data-name="Path 11163" d="M808.044,458.159c-.411.093-.614-.35-1.023-.382.435.283-.15.927.463,1.125a3.732,3.732,0,0,1,.662,1.986,6.97,6.97,0,0,0,1.339,3.99,1.973,1.973,0,0,1,.218,1.073c.008.924,0,1.847,0,2.771,0,.754-.165,1.573.772,1.973a.507.507,0,0,1,.234.386c.207,1.4.837,2.67,1.1,4.067a19.968,19.968,0,0,0,1.167,4.528,4.69,4.69,0,0,1,.272,1.069,3.209,3.209,0,0,0,.649,1.879,1.162,1.162,0,0,1,.224.787,6.645,6.645,0,0,0,.287,2.271.6.6,0,0,1-.268.8,22.612,22.612,0,0,1-4.848.829,24.572,24.572,0,0,1-7.37-.268c-.064-.861.592-.693,1.053-.679.578.018,1.114.313,1.718.3,1.163-.025,1.281-.1,1.286-1.253.01-2.4,0-4.808,0-7.212.008-6.072-.018-12.144.013-18.215,0-.737.15-1.467.1-2.205.153-1.068.153-1.068,1.069-.775C807.588,457.293,808.154,457.472,808.044,458.159Z" transform="translate(-775.415 -403.147)" fill="#3c2555"/>
      <path id="Path_11164" data-name="Path 11164" d="M725.175,457.846q0-.185,0-.369c.181-.255.558-.117.74-.371a1.648,1.648,0,0,0,.741-.741c.359-.184.763-.31.928-.738a.321.321,0,0,1,.388-.04.354.354,0,0,1,.017.432,26.172,26.172,0,0,0-1.385,2.891c-.826,1.566-1.973,2.916-2.709,4.561a12.174,12.174,0,0,1-2.31,3.747c-.109.109-.245.24-.254.38-.089,1.541-1.164,2.615-1.908,3.808-.8,1.278-1.355,2.663-2.1,3.946-.936,1.6-1.975,3.144-2.772,4.827a6.21,6.21,0,0,1-.83,1.217,1.343,1.343,0,0,1-1.862.438,1.491,1.491,0,0,1-.394-.093,3.2,3.2,0,0,1-1.091-.946l-2.781-2.2q-.111.165-.182-.02c-.22-.839-1.235-1.032-1.493-1.84.457-.247,1.128-.276,1.055-1.064-.01-.106.157-.244.259-.233,1.281.137,1.5-1.314,2.477-1.637.275-.091.3-.371.354-.609.068-.274.137-.586.424-.679,1.34-.434,1.783-1.742,2.65-2.637.655-.676,1.467-1.2,2.186-1.813.138-.119.424-.149.453-.3.277-1.4,1.684-1.782,2.458-2.738,1.633-2.018,3.8-3.549,5.3-5.7C723.959,458.722,724.705,458.427,725.175,457.846Z" transform="translate(-697.179 -402.091)" fill="#4c2c69"/>
      <path id="Path_11165" data-name="Path 11165" d="M978.94,275.736c.45.346.36.968.7,1.371a12.92,12.92,0,0,1,1.032,3.636c-.024.8-.3,1.81.014,2.35.626,1.073.241,2.1.329,3.125.083.972-.134,1.074-1.106,1.114-6.983.293-13.969.062-20.953.121a62.312,62.312,0,0,1-6.364-.1c-.542-.051-.967-.161-.543-.833a9.632,9.632,0,0,1,3.664-1.4c3.571-.886,7.115-1.868,10.676-2.781,1.429-.367,2.776-1.164,4.34-1.036.6.049,1.012-.564,1.592-.684,1.648-.34,3.241-.907,4.912-1.154,1.481-.219,2-1.011,1.5-2.3A1.137,1.137,0,0,1,978.94,275.736Z" transform="translate(-897.606 -255.574)" fill="#3e5da6"/>
      <path id="Path_11166" data-name="Path 11166" d="M969.347,359.81c-.5-.1-.906-.15-1.079-.859-.156-.641-.988-.9-1.607-1.1a1.577,1.577,0,0,1-1.108-1.129,2.624,2.624,0,0,0-1.884-1.841,1.6,1.6,0,0,1-1.052-1.063,2.7,2.7,0,0,0-1.936-1.909,1.583,1.583,0,0,1-1.038-1.079,2.774,2.774,0,0,0-1.95-1.9,1.282,1.282,0,0,1-.843-.777,4.07,4.07,0,0,0-1.977-2.284,4.739,4.739,0,0,1-1.33-1.386,10.645,10.645,0,0,0-1.876-2.154c-.914-.823-1.592-1.991-2.932-2.366-.771-.215-.815-.7-.306-1.244a.819.819,0,0,1,.82.1,3.073,3.073,0,0,0,2.01,1.176,2.37,2.37,0,0,1,1.336.729,2.177,2.177,0,0,0,1.484.847,1.056,1.056,0,0,1,.736.352c1.172,1.428,3.049,1.706,4.43,2.727.962.711,2.15,1.053,2.957,1.761a13.745,13.745,0,0,0,3.718,2.281c1.3.546,2.369,1.5,3.748,1.86a3.381,3.381,0,0,1,1.4,1.022,8.549,8.549,0,0,0,1.738,1.193c.5.309,1.072-.2,1.535.206l-.184.729,0,0a49.659,49.659,0,0,1-4.24,5.673A1.66,1.66,0,0,1,969.347,359.81Z" transform="translate(-894.524 -306.845)" fill="#524090"/>
      <path id="Path_11167" data-name="Path 11167" d="M975.237,211.889a20.313,20.313,0,0,1,1.873,2.906,6.639,6.639,0,0,0,.529.81,1.365,1.365,0,0,1-1.021,1.555c-.823.317-1.478,1.015-2.421,1.047a.966.966,0,0,0-.585.258c-1.137,1.065-2.7,1.483-3.848,2.51a10.737,10.737,0,0,1-1.961.961,11.95,11.95,0,0,1-2.87,1.62c-.727.2-1.167.884-1.815,1.249-.886.5-1.841.845-2.753,1.282a42.867,42.867,0,0,0-4.067,2.678,9.132,9.132,0,0,0-2.159,1.328.885.885,0,0,1-1.122.009c-.445-.636-.016-.945.46-1.238a1.335,1.335,0,0,1,.181-.192,12.09,12.09,0,0,1,2-2.215,10.151,10.151,0,0,1,2.429-2.822,9.327,9.327,0,0,0,.8-.756,7.387,7.387,0,0,0,2.922-2.9,50.043,50.043,0,0,1,4.019-4.063,51.943,51.943,0,0,1,5.594-5.358c.747-.546.7-.738.076-1.461-.437-.505-1.232-.8-1.114-1.677a.426.426,0,0,1,.361-.135c.673.254,1.043.915,1.664,1.238.517.374.817.982,1.391,1.3a.992.992,0,0,1,.18.185C974.346,210.661,975.009,211.13,975.237,211.889Z" transform="translate(-898.384 -199.791)" fill="#236fb4"/>
      <path id="Path_11168" data-name="Path 11168" d="M665.6,376.531q0-.362.009-.725a.271.271,0,0,1-.063-.259c.5-1.2.848-2.453,1.38-3.635a6.14,6.14,0,0,1,1.485-2.578l.175-.366c.092-.17.2-.314.427-.224a16.324,16.324,0,0,0,4.313,2.946,39.9,39.9,0,0,1,5.976,3.423c1.413.877,2.865,1.685,4.321,2.462,1.429.763,2.774,1.659,4.2,2.427,1.215.657,2.323,1.491,3.546,2.144a10.937,10.937,0,0,0,2.352,1.039c.485.3.85.745,1.329,1.05a.531.531,0,0,1,.254.314.242.242,0,0,1-.138.23,4.947,4.947,0,0,1-1.017-.075c-2.572-.453-4.973-1.54-7.558-1.983a12.428,12.428,0,0,1-3.607-1.072,1.191,1.191,0,0,0-.355-.1c-2.67-.44-5.208-1.4-7.835-2-2.4-.543-4.765-1.221-7.11-1.954C666.95,377.373,666.054,377.34,665.6,376.531Z" transform="translate(-664.275 -331.341)" fill="#6e3387"/>
      <path id="Path_11169" data-name="Path 11169" d="M838.525,495.109a8.8,8.8,0,0,1-.38-2.722c.042-.5.091-.962-.547-1.305-.443-.238-.26-.991-.275-1.472-.03-.976-.689-1.709-.773-2.673-.115-1.313-.764-2.535-.824-3.892-.032-.724-.62-1.313-.687-2.085a8.579,8.579,0,0,1-.22-.956c0-.292-.034-.606-.407-.6-.761.008-.705-.5-.7-1.008q.009-2.034,0-4.067c0-.358.085-.771-.426-.894-.057-.014-.156-.065-.153-.088.14-.987-1.1-1.482-.9-2.478.232-1.156-.526-2.194-.374-3.337.226-.083.532.6.715-.079.022-.083.293.044.262.126-.113.306.47.545.212.644-.66.254-.111.525-.028.667a19.649,19.649,0,0,0,2.171,3.084,23.827,23.827,0,0,1,1.817,3.6,1.12,1.12,0,0,0,.362.622.771.771,0,0,1,.261.259c.654,1.546,1.746,2.859,2.362,4.422.115.292.194.638.44.793a3.027,3.027,0,0,1,1.217,1.966,4.691,4.691,0,0,0,.914,1.381,8.6,8.6,0,0,1,1.926,3.635c.122.722.792,1.235,1.116,1.9.209.43.589.826.3,1.367a3.452,3.452,0,0,1-.35.233.415.415,0,0,1-.26.349c-1.136.387-2.133,1.141-3.221,1.508A19.512,19.512,0,0,1,838.525,495.109Z" transform="translate(-799.792 -411.773)" fill="#38224f"/>
      <path id="Path_11170" data-name="Path 11170" d="M955.063,177.344l1.835.757a8.382,8.382,0,0,1,2.23.864.956.956,0,0,1,.22.15,1.9,1.9,0,0,1,.351.413.824.824,0,0,1-.131.947c-1.3,1.755-2.094,3.809-3.3,5.618-.751,1.124-1.443,2.3-2.077,3.477-.959,1.777-1.972,3.522-2.958,5.283-1.4,2.495-2.854,4.956-4.321,7.41a7.87,7.87,0,0,0-.9,1.813c-.348.517-.538,1.267-1.435.976-.43-.888.135-1.685.305-2.486.683-3.214,1.77-6.323,2.526-9.526.76-3.22,1.783-6.38,2.634-9.581.458-1.722.816-3.47,1.285-5.191.384-1.41.359-1.424,1.841-1.5.123-.006.245-.028.369-.035A2.3,2.3,0,0,1,955.063,177.344Z" transform="translate(-891.525 -174.902)" fill="#1781c3"/>
      <path id="Path_11171" data-name="Path 11171" d="M702.175,467.923a.555.555,0,0,1-.208.728c-1.767,1.21-2.77,3.142-4.326,4.551-.388.352-1.162.558-1.223.818-.213.9-1.018,1.193-1.491,1.8-.35.45-.679.96-1.342,1.032a.358.358,0,0,0-.242.237c-.2,1.62-1.908,1.759-2.661,2.755-.574.758-1.489,1.292-1.764,2.2-.183.605-.446.714-.955.691-.256-.011-.58.039-.554.343a1.071,1.071,0,0,1-1.013,1.312.607.607,0,0,0-.494.6c.031.686-.413.785-.906.684-.75-.154-.852.3-.8.818.07.675-.039.868-.661.416-.153-.111-.411-.076-.622-.107a15.825,15.825,0,0,1-3.47-4.217,10.6,10.6,0,0,0-.965-1.34c-.233-.5-1.02-.727-.726-1.484.264.1.56.032.763.389a.865.865,0,0,0,1.42.027c.107-.145.142-.377.354-.376.656,0,1.225-.04,1.242-.927,0-.233.341-.231.55-.214.692.057,1.239-.5,1.952-.42.36.04.388-.351.362-.626-.065-.68.276-.87.884-.817.306.027.618-.016.924.008.731.059,1.321-.018,1.176-.995-.016-.106.07-.325.109-.326.808-.006,1.316-.754,2.021-.864.638-.1.878-.287.823-.9-.038-.422.205-.519.593-.637.869-.266,1.928-.03,2.57-.986.135-.2.659-.1.951-.242a9.124,9.124,0,0,0,2.809-1.552c1.059-1.169,2.749-1.107,3.756-2.276C701.2,467.819,701.778,467.95,702.175,467.923Z" transform="translate(-674.179 -412.168)" fill="#502c6f"/>
      <path id="Path_11172" data-name="Path 11172" d="M950.4,266.272c.695.054,1.3-.044,1.525-.847a.314.314,0,0,1,.176-.2c1.875-.45,3.1-1.956,4.686-2.855a31.586,31.586,0,0,1,3.512-1.608c.732-.3,1.05-1.187,1.872-1.277,1.117-.123,1.862-.977,2.733-1.487a32.815,32.815,0,0,0,5.524-3.376,2.038,2.038,0,0,1,1.506-.578c.278.024.575.007.669-.344.107-.4.431-.347.734-.4a1.731,1.731,0,0,0,1.487-1.465l.119-.05c.448.09.472.585.778.812a.832.832,0,0,1,.231.71c.211,1.034,1.06,1.822,1.127,2.912a4.438,4.438,0,0,0,.221,1.61c.486,1.507-.132,2.206-1.777,2.481a4.813,4.813,0,0,0-1.934.419c-.89.574-1.989.155-2.892.7-.993.6-2.295.473-3.223.889a43.77,43.77,0,0,1-5.424,1.543,25.79,25.79,0,0,1-5.141,1.366,10.913,10.913,0,0,0-3.9,1.046c-.832.422-1.775.369-2.61.732a.567.567,0,0,1-.717.086C949.367,266.341,949.935,266.353,950.4,266.272Z" transform="translate(-895.742 -236.06)" fill="#3268ac"/>
      <path id="Path_11173" data-name="Path 11173" d="M708.226,356.418a4.12,4.12,0,0,1-2.587-1.027c-.577-.491-1.338-.575-1.939-1.047-1.186-.932-2.614-1.515-3.852-2.351a31.354,31.354,0,0,0-3.619-2.021c-1.084-.539-1.931-1.473-3.149-1.781-.393-.1-.685-.552-1.1-.784a25.559,25.559,0,0,0-3.126-1.908c-.757-.288-1.436-.654-2.147-1.006a5.323,5.323,0,0,1-1.5-1.07c-.468-.48-1.22-.538-1.686-1.106-.192-.233-.04-.379-.114-.546-.263-.357,0-.629.147-.923a10.536,10.536,0,0,1,2.432-2.946l1.512-1.654c.288-.143.3-.571.663-.637a.423.423,0,0,1,.212.108c.146.313.464.445.7.661a.992.992,0,0,1,.14.228c.108.5.236.965.868,1.024.116.011.017-.056.08.033a28.114,28.114,0,0,0,1.993,2.065c.289.331.609.606.882.908a18.743,18.743,0,0,1,2.172,2.244c.17.266.248.55.6.6.09.014.221.028.256.091.526.934,1.57,1.382,2.124,2.285.064.1-.056.031.03.079.88.488,1.334,1.419,2.112,2.01.046.035.145.023.169.064.537.92,1.584,1.375,2.1,2.284.187.325.329.549.705.61a2.006,2.006,0,0,1,1.053.538,31.873,31.873,0,0,1,3.581,3.955A.988.988,0,0,1,708.226,356.418Z" transform="translate(-678.748 -304.365)" fill="#71378b"/>
      <path id="Path_11174" data-name="Path 11174" d="M790.065,459.634q0,14.287.015,28.573c0,.794-.195,1.149-1.033,1.053a5.511,5.511,0,0,1-2.249-.307.769.769,0,0,0-1.177.3l-1.478-.01a.991.991,0,0,1-.568.008,8.36,8.36,0,0,0-1.159-.3c-.264-.04-.584-.063-.487-.483-.045-.153.206.125.207-.191,0-.78.663-.3.933-.4-.522.051-.7-.328-.731-.855a3.063,3.063,0,0,1,.122-1.1c.477-1.484.589-3.066,1.2-4.513a2.512,2.512,0,0,0,.109-1c0-.746-.013-1.484.727-1.972.248-.163.216-.5.244-.77a22.067,22.067,0,0,1,1.049-4.662c.475-1.422.7-2.905,1.154-4.279.837-2.506,1.5-5.046,2.191-7.584.125-.457-.055-1,.4-1.377C789.71,459.631,789.822,459.44,790.065,459.634Z" transform="translate(-759.106 -405.36)" fill="#40265b"/>
      <path id="Path_11175" data-name="Path 11175" d="M661.553,410.924c1.826.562,3.673,1.062,5.47,1.705,1.606.575,3.3.765,4.924,1.286a10.9,10.9,0,0,0,3.087.75c.976.02,1.74.775,2.773.831a20.926,20.926,0,0,1,4.139,1.119c1.117.3,2.265.428,3.377.775a18.973,18.973,0,0,1,2.932.978c.637.319,1.437-.018,2.007.529a2.031,2.031,0,0,1-2.041.512,7.14,7.14,0,0,0-3.095.118,4.85,4.85,0,0,1-2.649,0,7.776,7.776,0,0,0-2.185-.247q-8.355,0-16.709,0c-1.579,0-1.534.007-1.661,1.543-.062.753.1,1.624-.658,2.185-.485-.36-.435-.871-.394-1.38.024-.915.318-1.859-.3-2.706a31.164,31.164,0,0,1,.247-4.848A7.176,7.176,0,0,1,661.553,410.924Z" transform="translate(-660.229 -365.734)" fill="#632e80"/>
      <path id="Path_11176" data-name="Path 11176" d="M979.05,352.915c-.1.066-.253.213-.305.185-.6-.331-.673.022-.633.6a3.169,3.169,0,0,0-1.556-1.134,25.277,25.277,0,0,1-1.966-1.6c-.072-.048-.121-.2-.173-.2-1.538.106-2.221-1.761-3.834-1.625-.477.04-.9-.684-1.449-.964-.823-.418-1.885-.549-2.291-1.623-.126-.333-.568-.354-.91-.3a1.461,1.461,0,0,1-1.565-.908c-.243-.48-.54-.518-.987-.606-.723-.142-1.188-.847-1.914-1.052-.076-.021-.128-.188-.191-.187-1.075.008-1.392-1.13-2.1-1.446a11.443,11.443,0,0,1-2.667-1.615,11.941,11.941,0,0,0-2.1-.74.742.742,0,0,1-.524-.849c.36-.412.784-.276,1.187-.111a9.308,9.308,0,0,0,3.84.859c.91-.029,1.476.839,2.377.893,1.565.094,3,.853,4.563.978a1.21,1.21,0,0,1,.536.128c1.9,1.156,4.146,1.034,6.176,1.7.232.076.484.1.711.195a7.574,7.574,0,0,0,3.774.962,1.244,1.244,0,0,1,.691.238,7.375,7.375,0,0,0,2.6.889,2.127,2.127,0,0,1,1.421.586,3.6,3.6,0,0,1-.857,3.028h0c-.175.254-.05.557-.132.826a.441.441,0,0,1-.241.27Z" transform="translate(-899.234 -306.783)" fill="#4d4795"/>
      <path id="Path_11177" data-name="Path 11177" d="M924.668,339.648q0,.555,0,1.111c.588,1.169.578,2.519,1.083,3.7.443,1.034.683,2.137,1.141,3.153a19.2,19.2,0,0,1,.662,2.776,7.978,7.978,0,0,1,.455,3,.6.6,0,0,0,.187.6c1.262.771,1.142,2.074,1.273,3.273a10.755,10.755,0,0,1,.007,1.387c-.014.656-.063,1.31.716,1.631a.7.7,0,0,1,.325.541,20.7,20.7,0,0,1,.83,4.151c-.007.882.647,1.566.88,2.4a2.27,2.27,0,0,1,.026,1.487c-.135.336-.432.382-.738.414-1.485.2-2.978.362-4.453.621-.8.14-1.594.044-2.386.137a.7.7,0,0,1-.634.32,8.292,8.292,0,0,1-2.323-.361c-.581-.372-1.3.047-1.884-.338.892-.7,1.868-.345,2.826-.228.273.033.407.139.714-.246a2.794,2.794,0,0,0,.538-1.961c.012-8.3-.026-16.591.03-24.886a7.775,7.775,0,0,1,.254-2.643A.335.335,0,0,1,924.668,339.648Z" transform="translate(-871.496 -307.588)" fill="#6c3f91"/>
      <path id="Path_11178" data-name="Path 11178" d="M951.935,216.007c.065-1.245,1-2.063,1.535-3.074.782-1.483,1.691-2.9,2.508-4.362.326-.584.685-1.161,1.041-1.711.863-1.332,1.527-2.776,2.344-4.131.6-.988,1.183-2.021,1.753-3.044.754-1.353,1.557-2.678,2.342-4.013a3.948,3.948,0,0,0,.753-1.538,3.625,3.625,0,0,1,1.093-1.666c.213-.25.546-.45.332-.863a.26.26,0,0,1,.308-.124,1.3,1.3,0,0,1,.218.106,2.644,2.644,0,0,1,.95.731l-.015.046a20.036,20.036,0,0,0,1.859,1.436l.219.164a.816.816,0,0,1,.261.212,2.515,2.515,0,0,1,.266.372,6.551,6.551,0,0,0,1.609,1.752c.559.519.509.858-.038,1.3a18.418,18.418,0,0,0-2.57,2.235c-1.441,1.715-3.221,3.083-4.663,4.805-.7.831-1.728,1.406-2.318,2.4-.058.1-.347.059-.529.083a14.281,14.281,0,0,1-2.962,2.962.746.746,0,0,1-.447.79,4.11,4.11,0,0,0-1.721,1.732c-.221.444-1.034.463-.8,1.177a3.136,3.136,0,0,0-2.22,2.221h0A.88.88,0,0,1,951.935,216.007Z" transform="translate(-897.653 -186.909)" fill="#0c79bd"/>
      <path id="Path_11179" data-name="Path 11179" d="M757.883,324.3l-.365-.006a1.771,1.771,0,0,0-.332-.632,4.336,4.336,0,0,1-1.18-2.215,2.379,2.379,0,0,0-.678-1.28,6.139,6.139,0,0,1-1.417-2.327,1.123,1.123,0,0,0-.53-.6.964.964,0,0,1-.164-.2,12.125,12.125,0,0,1-1-1.695,1.213,1.213,0,0,1-.319-.213.885.885,0,0,1-.145-.222,2.522,2.522,0,0,1-.119-.921c-1.193-1.12-1.374-2.9-2.6-4a1.039,1.039,0,0,1-.309-.837c0-.132,0-.264-.015-.4,0-.322-.237-.5-.451-.658a2.43,2.43,0,0,1-1.108-2.017.471.471,0,0,0-.092-.35c-1.789-1.762-2.531-4.2-4.008-6.165-.828-1.1-.855-1.078.012-2.152a.689.689,0,0,1,.01-.152,5.916,5.916,0,0,1,2.99-1.461.744.744,0,0,0,.156-.023,5.089,5.089,0,0,1,1.7-.893,1,1,0,0,1,.26-.053.606.606,0,0,1,.476.178c.117.067-.08.3.033.238.328-.172.706-.112,1.021-.292a.731.731,0,0,1,.247-.078.475.475,0,0,1,.463.24c.185.552-.085.948-.524,1.375.567.079,1.087-.008,1.581.115.242.06.5.14.544.428.047.309-.2.456-.434.51-.762.174-.73.563-.415,1.147.27.5.343,1.085.838,1.5.372.308.3.846.32,1.308.045,1.217-.169,2.455.431,3.619a1.315,1.315,0,0,1-.186,1.237c-.243.423-.255.77.3.918a1.2,1.2,0,0,1,.938,1.023.955.955,0,0,0,.418.583,1.26,1.26,0,0,1,.479,1.057c-.008.867.363,1.694.422,2.5.107,1.48.724,2.851.718,4.328a1.036,1.036,0,0,0,.391.977,1.433,1.433,0,0,1,.528,1.039c.209,1.309.772,2.522,1.034,3.818.036.177.228.288.3.465A1.047,1.047,0,0,1,757.883,324.3Z" transform="translate(-726.927 -271.136)" fill="#803a8d"/>
      <path id="Path_11180" data-name="Path 11180" d="M722.526,320.492c.037.176.012.442.118.514,1.424.97,1.333,2.98,2.731,3.963.078.055.076.222.112.337a1.483,1.483,0,0,1-.987.447c-.979.131-1.393-.253-1.326-1.233a1.757,1.757,0,0,0-.218-1.482,6.621,6.621,0,0,0-.023,2.038,1.129,1.129,0,0,0,1.171.971c.483.031,1-.049,1.384.369h0c.122.272.245.291.369,0l1.111,1.85a.845.845,0,0,0-.295.531c.179-.061.138-.294.3-.347.467.058.644.382.788.784a5.819,5.819,0,0,0,1.3,2.043,2.737,2.737,0,0,1,.875,1.936c-.005.714.788.963.94,1.611.065.28.341.51.17.842-.39-.35-.885-.6-1.113-1.108a30.185,30.185,0,0,0-4.24-4.874c-.126-.124-.315-.278-.464-.269-.84.054-1.36-.152-1.26-1.153.036-.361-.353-.382-.63-.361-.586.045-.877-.176-.813-.79.053-.519-.2-.743-.709-.7-.538.049-.829-.156-.77-.733.057-.558-.2-.8-.752-.75-.492.046-.779-.145-.726-.679.06-.6-.192-.864-.8-.8-.528.053-.732-.22-.686-.719.051-.548-.177-.818-.743-.76s-.794-.218-.739-.762c.059-.589-.258-.765-.783-.719s-.743-.2-.7-.71c.049-.537-.156-.829-.732-.77-.558.057-.8-.2-.75-.752.045-.492-.144-.78-.679-.726-.6.06-.857-.191-.808-.8.022-.273.008-.682-.343-.643-1.309.145-1.165-.716-1.131-1.525.261-.293.63-.123.936-.222-.308.09-.674-.066-.936.222-.549.061-.811-.165-.732-.732a2.127,2.127,0,0,0,.728-.76l.586-.721a.236.236,0,0,1,.169-.162,46.283,46.283,0,0,1,4.275-2.942c.285-.17.589-.309.885-.462-.12.358.067.825-.387,1.068-.077.041-.236.1-.043.241a8.257,8.257,0,0,1,2.227,3.253c.41.8,1.4,1.316,1.233,2.417-.031.2.253.221.406.314.544.329,1.051.755,1,1.436a1.726,1.726,0,0,0,.94,1.661c.34.231.664.456.561.943-.217.239-.5.179-.766.161C722.019,320.336,722.319,320.246,722.526,320.492Z" transform="translate(-700.454 -282.508)" fill="#77378d"/>
      <path id="Path_11181" data-name="Path 11181" d="M860.5,510.9c.056-.94-.637-1.542-1.07-2.242a4.419,4.419,0,0,1-.641-1.564,7.217,7.217,0,0,0-1.64-2.837c-.59-.776-1.352-1.441-1.292-2.544.013-.249-.147-.365-.389-.434a1.473,1.473,0,0,1-1.031-1.355,2.027,2.027,0,0,0-.654-1.348,3.344,3.344,0,0,1-1-1.7c-.137-.61-.3-1.357-1.108-1.582a.354.354,0,0,1-.208-.268c.174-1.283-1.037-1.96-1.332-3.045a4.273,4.273,0,0,1-.188-1.069c.51-.052,1.047.136,1.525-.2a.265.265,0,0,1,.4.109c.33.711,1.237,1.124,1.05,2.11-.116.612.08,1.029.826.945.476-.054.684.2.642.662-.053.58.163.879.781.816.511-.052.748.187.7.7s.136.837.721.779c.543-.054.819.17.761.737s.205.8.755.745c.492-.045.776.147.723.679-.059.593.188.864.793.8.522-.053.736.211.69.713-.049.539.161.824.734.766.556-.057.8.2.749.75-.045.487.138.781.674.728.588-.058.87.178.808.788-.053.517.2.741.708.695.534-.048.832.151.77.729-.069.643.289.743.838.773.467.025,1.07-.32,1.384.351l-.185.185c-.169.259-.219.607-.555.741l-.37.184c-.335.351-1.009.295-1.111.926a1.757,1.757,0,0,1-.555.555h-.185c-.4.294-.587.112-.662-.3.033.317.235.653-.049.942s-.661.534-.955.843c-.439-.082-.708.342-1.11.371C861.043,510.749,860.927,511.136,860.5,510.9Z" transform="translate(-814.549 -430.709)" fill="#32214c"/>
      <path id="Path_11227" data-name="Path 11227" d="M917.9,503.84l2.958.042c.358.328.844.037,1.348.3l-1.073.081a7.286,7.286,0,0,0,3.182-.093c-.137-.274-.49.019-.654-.274a2.642,2.642,0,0,1,2.072.517c.208.161.411.244.561.115a3.964,3.964,0,0,1,1.809-.585c-.025.523.091,1.021-.685,1.172-.558.108-.839.8-1.427.944-.2.05-.595.019-.571-.142.142-.964-.923-.768-1.187-1.309-.1-.2-.235-.147-.383-.118a33.068,33.068,0,0,1-3.584.121c-.752.066-1.344-.7-2.125-.307.029.227.337.012.444.3-.5,0-.971,0-1.442,0-.3,0-.64-.051-.736.369-.116.483-.533.443-.808.327-.323-.137-.291-.4-.051-.727.16-.217-.294-.06-.4-.318C916.114,504.3,916.955,503.776,917.9,503.84Z" transform="translate(-867.68 -441.444)" fill="#291b41"/>
      <path id="Path_11239" data-name="Path 11239" d="M1016.637,479.729c.03.007.079.006.087.023a6.3,6.3,0,0,1-.513,2.895,1.945,1.945,0,0,1-1.891.8c-.714-.064-.85-1.022-1.613-.919l.227-.58c1.1-.612,2.091-1.381,3.121-2.095C1016.206,479.752,1016.4,479.577,1016.637,479.729Z" transform="translate(-947.175 -421.753)" fill="#291b41"/>
      <path id="Path_11249" data-name="Path 11249" d="M1102.6,285.712c.062-1.231-.659-2.292-.759-3.487l.384-.207h0a5.154,5.154,0,0,0,.74,2.591h0l0,.368a4.639,4.639,0,0,1,.591,2.194c.045.368.5.723.15,1.137a18.263,18.263,0,0,1,0,2.962.7.7,0,0,1,0,.926q0,.277,0,.555a12.6,12.6,0,0,1,.142,3.242c.009.128-.2.363-.272.231-.4-.719.029.255-.1.045a.96.96,0,0,1-.143,1.109l0,.37a1.277,1.277,0,0,0-.171.921.694.694,0,0,1-.219.82.4.4,0,0,1-.448-.1c-.412-1.023.089-2,.2-2.983a32.476,32.476,0,0,0,.331-7.707C1102.9,287.705,1102.818,286.7,1102.6,285.712Z" transform="translate(-1019.809 -260.693)" fill="#242152"/>
      <path id="Path_11256" data-name="Path 11256" d="M906.386,167.052c.381.591.981.283,1.486.362.286-.049.654-.353.731.239-.372.337-.866.177-1.286.323a46.033,46.033,0,0,0-4.945-.3,38.554,38.554,0,0,0-6.626.886,4.6,4.6,0,0,1-1.26.235,1.006,1.006,0,0,1-.634-.159.227.227,0,0,1-.053-.3,5.6,5.6,0,0,1,2.052-.561.452.452,0,0,0,.545-.361c.878-.016,1.626-.935,2.587-.372h2.962a5.065,5.065,0,0,1,2.962,0h1.478Z" transform="translate(-850.254 -166.828)" fill="#19264e"/>
      <path id="Path_11257" data-name="Path 11257" d="M992.373,478.321c-.584.493-1.31.732-1.716,1.561-.228.467-1.268.551-1.987.66-.4.093-1.139-.153-.74.74-.672.161-1.289.625-2.036.371-.9-.121-1.655.546-2.553.461-.147-.014-.291.029-.41-.09l.572-.339a1.53,1.53,0,0,1,.932-.528,25.73,25.73,0,0,0,5.231-2.166,2.02,2.02,0,0,1,1.215-.323c.547-.138.911-.652,1.489-.727Q992.371,478.131,992.373,478.321Z" transform="translate(-922.911 -420.344)" fill="#2d1b4b"/>
      <path id="Path_11275" data-name="Path 11275" d="M659.9,435.358q0,.74,0,1.48c-.167.225-.09.571-.368.74h-.165a27.811,27.811,0,0,1-.026-9.131,2.933,2.933,0,0,1,.182-.5q0,2.5.007,5.008c.311.394.19.847.192,1.289C659.725,434.617,659.617,435.021,659.9,435.358Z" transform="translate(-658.931 -379.602)" fill="#583273"/>
      <path id="Path_11280" data-name="Path 11280" d="M924.879,514.729c-.118-.468-.5-.347-.82-.369a9.448,9.448,0,0,1-2.147-.13c.562-.375,1.047-.185,1.486-.242h6.31c-.244.463-.587.347-.893.367-.39.026-.761-.04-1.065.371-.264.357-.761.234-1.129.144A7.375,7.375,0,0,0,924.879,514.729Z" transform="translate(-873.188 -449.719)" fill="#291b41"/>
      <path id="Path_11281" data-name="Path 11281" d="M682.074,347.3c-.58-.311-.542-.8-.08-1.049.637-.348.423-.607.1-.972-.213-.239-.573-.475-.219-.842s1.756-.635,1.875-.376c.159.346-.156.672-.191,1.021.119.221.243.5.071.688a16.778,16.778,0,0,0-1.136,1.649C682.34,347.633,682.175,347.483,682.074,347.3Z" transform="translate(-677.401 -311.169)" fill="#291b41"/>
      <path id="Path_11294" data-name="Path 11294" d="M795.084,237.571c-.49.046-.828.075-.554-.649a6.851,6.851,0,0,0,.188-1.769c.044-.484.29-.883.779-.851.548.036.358.52.337.874-.018.306-.008.614-.01.922a.66.66,0,0,1,.164.692C795.727,237.093,795.706,237.68,795.084,237.571Z" transform="translate(-769.309 -221.808)" fill="#291b41"/>
      <path id="Path_11309" data-name="Path 11309" d="M668.416,372.014c-1.031,2.057-1.913,4.179-2.781,6.307a.276.276,0,0,1-.019-.392,5.641,5.641,0,0,1,.742-2.223.508.508,0,0,1,0-.739c.611-.208.281-.729.37-1.111.22-.628.55-1.212.743-1.851Z" transform="translate(-664.281 -334.02)" fill="#38194d"/>
      <path id="Path_11312" data-name="Path 11312" d="M821.827,202.249l.736-.4a.415.415,0,0,1,.156.358A14.372,14.372,0,0,1,819.958,205c-.181.16-.408.273-.6.426-.4.288-.709.677-1.08,1-.25.215-.483.5-.881.317a.4.4,0,0,1-.131-.365.367.367,0,0,1,.164-.206,4.456,4.456,0,0,0,1.437-1.309c.159-.589.7-.794,1.124-1.114v0A3.7,3.7,0,0,1,821.827,202.249Z" transform="translate(-787.911 -195.369)" fill="#2f8dc4"/>
      <path id="Path_11319" data-name="Path 11319" d="M1037.847,473.682c.818-.3,1.292-.725,1.345-1.407.032-.4.212-.187.325-.149a1.4,1.4,0,0,1,.538,1.751c-.264.666-.736.294-1.148.155C1038.625,473.937,1038.34,473.845,1037.847,473.682Z" transform="translate(-967.66 -415.531)" fill="#291b41"/>
      <path id="Path_11326" data-name="Path 11326" d="M1086.751,247.376l-.383-.551a4.675,4.675,0,0,0-.793-1.242.249.249,0,0,1,.049-.232c.034-.294-.083-.685.274-.813.444-.159.457.315.584.546.214.39,1.247.616.306,1.318-.055.041.375.578.327.972l0,0Z" transform="translate(-1006.543 -230.126)" fill="#291b41"/>
      <path id="Path_11329" data-name="Path 11329" d="M1088.864,417.427c.367.175.518-.513.747-.291.576.559.4-.525.857-.232-.135.587-.271,1.234-.437,1.873a.352.352,0,0,1-.426.265.576.576,0,0,1-.52-.45c-.077-.389-.146-.779-.219-1.169Z" transform="translate(-1009.233 -370.566)" fill="#291b41"/>
      <path id="Path_11331" data-name="Path 11331" d="M761.628,293.09c-.476-.934-.475-.9.562-.963a10.585,10.585,0,0,1,1.463-.151c.3.024.643-.061.747.36-.214.348-.688.085-.92.392l0,0a3.656,3.656,0,0,0-1.1.381A.565.565,0,0,1,761.628,293.09Z" transform="translate(-742.328 -268.802)" fill="#291b41"/>
      <path id="Path_11336" data-name="Path 11336" d="M865.029,178.826l2.532-1.123a12.131,12.131,0,0,1,1.613-.839.844.844,0,0,1,1.024.051.456.456,0,0,1,.026.442,3.355,3.355,0,0,1-2.671.847c-.021,0-.054-.031-.065,0a2.644,2.644,0,0,1-2.668,1.061C864.648,179,864.826,178.908,865.029,178.826Z" transform="translate(-826.61 -174.886)" fill="#2f83bc"/>
      <path id="Path_11340" data-name="Path 11340" d="M1101.355,376a4.119,4.119,0,0,1-.449,1.786c-.264.665.01,1.323-.291,1.916-.255.4-.5,0-.752-.009.125-1.016.777-1.894.77-2.945-.062-.332-.051-.631.349-.748Z" transform="translate(-1018.195 -337.275)" fill="#281f4e"/>
      <path id="Path_11347" data-name="Path 11347" d="M698.142,328.61a7.1,7.1,0,0,1,.786-1.408c.518-.627.891.017,1.291.108.2.045.084.427-.2.544C699.454,328.079,698.894,328.306,698.142,328.61Z" transform="translate(-690.845 -297.291)" fill="#291b41"/>
      <path id="Path_11349" data-name="Path 11349" d="M698.919,568.556c.538.751,1.418,1.184,1.8,2.058C699.511,570.724,698.768,569.93,698.919,568.556Z" transform="translate(-691.463 -494.184)" fill="#291b41"/>
      <path id="Path_11351" data-name="Path 11351" d="M682.291,350.582c.029.009.077.035.085.026a4.584,4.584,0,0,0,1.4-2.245c.161.137.3.318.487,0a.753.753,0,0,1,.6-.379,22.322,22.322,0,0,0-2.579,3.869l-.352.221A1.828,1.828,0,0,1,682.291,350.582Z" transform="translate(-677.618 -314.448)" fill="#37194f"/>
      <path id="Path_11354" data-name="Path 11354" d="M748.9,300.022a16.5,16.5,0,0,1-2.99,1.461,1.129,1.129,0,0,1,.375-1.1c.281-.388.7-.364,1.109-.371Z" transform="translate(-729.762 -275.355)" fill="#33184a"/>
      <path id="Path_11356" data-name="Path 11356" d="M916.943,584.516c.024-.151-.006-.381.081-.44a1.809,1.809,0,0,0,.862-1.929c-.031-.185.117-.291.3-.2a.363.363,0,0,1,.164.548c-.245.37-.229.557.263.545C918.272,583.775,917.982,584.567,916.943,584.516Z" transform="translate(-869.14 -505.067)" fill="#2f1e4a"/>
      <path id="Path_11359" data-name="Path 11359" d="M1108.506,301.34c-.255-.646-.148-1.387-.624-1.993-.283-.36-.084-.888-.118-1.339.332.012.7-.042.735.458.034.451-.359,1.024.353,1.29C1108.3,300.19,1108.974,300.89,1108.506,301.34Z" transform="translate(-1024.604 -273.723)" fill="#291b41"/>
      <path id="Path_11361" data-name="Path 11361" d="M1058.474,458.429a4.9,4.9,0,0,1-1.25,1.221.367.367,0,0,1-.489-.117c-.1-.177.088-.268.174-.382.282-.374.783-.585.756-1.194-.008-.183.371-.2.563-.151C1058.519,457.876,1058.351,458.166,1058.474,458.429Z" transform="translate(-983.026 -403.919)" fill="#291b41"/>
      <path id="Path_11362" data-name="Path 11362" d="M747.291,296.581c-.207.61-.728.28-1.109.371-.512-.166-.459-.593-.277-.892.246-.4.728-.221,1.1-.189C747.5,295.913,747.318,296.294,747.291,296.581Z" transform="translate(-729.661 -271.925)" fill="#291b41"/>
      <path id="Path_11364" data-name="Path 11364" d="M984.96,174.089a2.574,2.574,0,0,1,2.571.453c.213.131.387.064.572.118v.37l-1.5-.327C985.987,174.677,985.291,174.87,984.96,174.089Z" transform="translate(-924.564 -172.589)" fill="#152d58"/>
      <path id="Path_11365" data-name="Path 11365" d="M721.317,312.018c.209.038.626-.121.683.3s-.351.416-.638.487c-.029.007-.056.023-.085.032-.327.1-.632.449-1,.106a.386.386,0,0,1-.056-.5C720.449,312.025,720.838,311.992,721.317,312.018Z" transform="translate(-708.783 -285.133)" fill="#291b41"/>
      <path id="Path_11368" data-name="Path 11368" d="M783.41,276.992l.806-2.649c.044-.252.081-.511.446-.332a1.654,1.654,0,0,1-.058,1.8,2.268,2.268,0,0,0-.307,1.561.538.538,0,0,1-.726.332C783.243,277.57,783.417,277.243,783.41,276.992Z" transform="translate(-760.295 -254.12)" fill="#3297d5"/>
      <path id="Path_11384" data-name="Path 11384" d="M1037.873,196.385a1.13,1.13,0,0,1,.22-.158c.95-.38,1.21-.308,1.815.542h-1.489C1038.047,196.912,1037.875,196.769,1037.873,196.385Z" transform="translate(-967.682 -190.606)" fill="#291b41"/>
      <path id="Path_11385" data-name="Path 11385" d="M882.521,175.543c-.916.089-1.694.625-2.587.789.352-.56.979-.758,1.48-1.123a.965.965,0,0,1,1.1,0l.61.033C883.074,175.638,882.805,175.605,882.521,175.543Z" transform="translate(-838.982 -173.515)" fill="#153157"/>
      <path id="Path_11386" data-name="Path 11386" d="M1047.071,204.858c0,.059,0,.118,0,.177a.627.627,0,0,0,.186.554c.206.134.389.277.188.55l-1.522-1.28c-.2-.192-.543-.12-.709-.378l-.153-.2a.731.731,0,0,1,1.047.171A1.057,1.057,0,0,0,1047.071,204.858Z" transform="translate(-973.54 -197.224)" fill="#162d59"/>
      <path id="Path_11391" data-name="Path 11391" d="M781.911,290.374c.055.69.4.614.832.317a.53.53,0,0,1,.4-.253.711.711,0,0,1,.732.262c-.2.881-.8,1.134-1.711.724l-.553-.009a.235.235,0,0,1-.006-.348Z" transform="translate(-758.796 -267.502)" fill="#6c4598"/>
      <path id="Path_11393" data-name="Path 11393" d="M1065.779,222.09c1.113-.147,1.095.883,1.516,1.456q-.01.2-.02.4A4.543,4.543,0,0,1,1065.779,222.09Z" transform="translate(-990.421 -211.848)" fill="#1a2a57"/>
      <path id="Path_11395" data-name="Path 11395" d="M833.424,203.794a6.707,6.707,0,0,1-1.838,1.5l-.023-.2a.261.261,0,0,1,.013-.37q0-.092,0-.183C832.174,204.239,832.618,203.57,833.424,203.794Z" transform="translate(-799.509 -196.914)" fill="#182e5a"/>
      <path id="Path_11399" data-name="Path 11399" d="M666.7,383.233q0,.37,0,.739c-.5.146-.776,0-.735-.556a2.76,2.76,0,0,1,.16-1.268Z" transform="translate(-664.616 -342.286)" fill="#291b41"/>
      <path id="Path_11403" data-name="Path 11403" d="M665.949,503.93a8.723,8.723,0,0,1,1.107,2.972A4.028,4.028,0,0,1,665.949,503.93Z" transform="translate(-664.602 -441.522)" fill="#331b4c"/>
      <path id="Path_11405" data-name="Path 11405" d="M1097.866,398.72l.028-.352a.738.738,0,0,1,.354-.366c.175.231.3.5.7.417.176-.037.347.135.363.338.023.295-.227.209-.386.235C1098.533,399.054,1098.077,399.36,1097.866,398.72Z" transform="translate(-1016.568 -355.205)" fill="#291b41"/>
      <path id="Path_11411" data-name="Path 11411" d="M787.785,264.141l-.356.4-.053-.05a.449.449,0,0,1,.035-.514c.129-.555.552-1.041.4-1.665.067-.16.259-.088.356-.192l.328-.2.119.059c.322.478-.176.816-.208,1.233a3.866,3.866,0,0,1-.5.88Z" transform="translate(-763.508 -244.314)" fill="#192959"/>
      <path id="Path_11413" data-name="Path 11413" d="M951.487,569.849c0,.489.008.9,0,1.318-.006.205.016.48-.295.466-.237-.01-.241-.244-.247-.425C950.925,570.723,950.878,570.223,951.487,569.849Z" transform="translate(-896.837 -495.237)" fill="#291b41"/>
      <path id="Path_11414" data-name="Path 11414" d="M723.246,592.692a1.5,1.5,0,0,0-.18.033,1.725,1.725,0,0,1-1.326.043c-.036-.017-.011-.159-.014-.242.513-.019.947-.629,1.52-.2.126-.031.23,0,.243.141C723.506,592.627,723.438,592.733,723.246,592.692Z" transform="translate(-710.059 -513.427)" fill="#291b41"/>
      <path id="Path_11422" data-name="Path 11422" d="M1034.589,196.61a.641.641,0,0,0,.546.384c.116.3.568.336.567.726a2.267,2.267,0,0,1-1.859-1.436Z" transform="translate(-964.398 -190.831)" fill="#1b69a3"/>
      <path id="Path_11423" data-name="Path 11423" d="M1057.111,212.549l-.188-.55c.445-.043.658.3.924.555-.177.435.212.592.441.755s.339.3.281.567C1057.883,213.654,1057.589,213,1057.111,212.549Z" transform="translate(-983.205 -203.633)" fill="#172453"/>
      <path id="Path_11424" data-name="Path 11424" d="M801.843,238.071q.01-.346.02-.692c.611-.38.729-1.234,1.451-1.506l.1.082c.151.649-.427,1-.62,1.5a1.52,1.52,0,0,1-.735.708A.218.218,0,0,1,801.843,238.071Z" transform="translate(-775.348 -223.091)" fill="#11315d"/>
      <path id="Path_11426" data-name="Path 11426" d="M998.936,496.245a4.054,4.054,0,0,1,2.036-.371C1000.382,496.484,999.743,496.826,998.936,496.245Z" transform="translate(-935.953 -434.937)" fill="#291b41"/>
      <path id="Path_11428" data-name="Path 11428" d="M1012.967,184.052c.157.586,1.042.444,1.114,1.114a9.236,9.236,0,0,1-2.231-1.1Z" transform="translate(-946.476 -180.863)" fill="#152f60"/>
      <path id="Path_11430" data-name="Path 11430" d="M811.5,225a.375.375,0,0,1-.037.138c-.4.5-.563,1.307-1.477,1.148C810,225.284,810.5,224.845,811.5,225Z" transform="translate(-781.986 -214.208)" fill="#291b41"/>
      <path id="Path_11431" data-name="Path 11431" d="M817.948,212.762c.254-.213.1-.787.661-.736.5.045.436.408.45.736-.175-.073-.378-.141-.479.072-.3.621-.443.138-.631-.071Z" transform="translate(-788.472 -203.657)" fill="#291b41"/>
      <path id="Path_11436" data-name="Path 11436" d="M927.765,580.909c.01-.335-.306-.489-.495-.771.553-.336,1.123.147,1.605-.154A2.207,2.207,0,0,1,927.765,580.909Z" transform="translate(-877.555 -503.495)" fill="#2f1e4a"/>
      <path id="Path_11437" data-name="Path 11437" d="M809.831,227.04c.634-.2.839-.952,1.477-1.148q-.009.189-.019.378c0,.044,0,.088,0,.133-.41.533-.55,1.342-1.428,1.4l-.069-.059Q809.813,227.39,809.831,227.04Z" transform="translate(-781.828 -214.957)" fill="#11315d"/>
      <path id="Path_11438" data-name="Path 11438" d="M714.722,323.127l-.169.162c-.488.01-.621-.266-.569-.7.029-.242.148-.436.4-.371C714.894,322.351,714.642,322.81,714.722,323.127Z" transform="translate(-703.746 -293.441)" fill="#291b41"/>
      <path id="Path_11442" data-name="Path 11442" d="M866.4,180.141c-.338.425-.866.181-1.251.476-.193.148-.474-.158-.49-.385s.259-.186.432-.193C865.529,180.021,865.931,180.325,866.4,180.141Z" transform="translate(-826.532 -177.593)" fill="#291b41"/>
      <path id="Path_11445" data-name="Path 11445" d="M1093.921,259.426c.8-.275.847-.2.617,1.024a1.058,1.058,0,0,1-.62-1.021Z" transform="translate(-1013.35 -242.176)" fill="#291b41"/>
      <path id="Path_11447" data-name="Path 11447" d="M798.593,626.655H796.1C796.936,626.081,797.816,626.817,798.593,626.655Z" transform="translate(-770.667 -541.345)" fill="#291b41"/>
      <path id="Path_11452" data-name="Path 11452" d="M714.45,592.112c.3.014.49.1.527.352.045.3-.181.349-.407.35s-.419-.091-.415-.37A.329.329,0,0,1,714.45,592.112Z" transform="translate(-703.894 -513.379)" fill="#291b41"/>
      <path id="Path_11455" data-name="Path 11455" d="M787.19,260.741l-.356.191-.359-.3c-.138.291.293.692-.2.863l-.009-.014c0-.06-.006-.12,0-.18.008-.332-.367-.717.064-.988C786.8,260.008,786.869,260.656,787.19,260.741Z" transform="translate(-762.535 -242.938)" fill="#291b41"/>
      <path id="Path_11456" data-name="Path 11456" d="M897.763,608.086a1.245,1.245,0,0,1-1.612.622Z" transform="translate(-852.196 -526.395)" fill="#291b41"/>
      <path id="Path_11460" data-name="Path 11460" d="M810.87,220.015c.063.172.435.259.186.506a.913.913,0,0,1-.723.317c-.2-.023-.2-.217-.1-.346a1.012,1.012,0,0,1,.631-.479Z" transform="translate(-782.133 -210.168)" fill="#291b41"/>
      <path id="Path_11463" data-name="Path 11463" d="M937.941,575.724a.919.919,0,0,1,.556-.741c-.026.341.339.5.393.817C938.546,576.027,938.245,575.851,937.941,575.724Z" transform="translate(-886.25 -499.421)" fill="#2f1e4a"/>
      <path id="Path_11467" data-name="Path 11467" d="M811.351,623.213h2.421v.084h-2.422Z" transform="translate(-783.096 -538.722)" fill="#291b41"/>
      <path id="Path_11468" data-name="Path 11468" d="M810.149,212.565a.307.307,0,0,1,.339-.336c.279,0,.352.2.354.429,0,.109.129.318-.17.274C810.425,212.9,810.175,212.9,810.149,212.565Z" transform="translate(-782.116 -203.824)" fill="#291b41"/>
      <path id="Path_11471" data-name="Path 11471" d="M696.929,340.165c.322-.147.628.053.959.011C697.34,340.952,697.326,340.952,696.929,340.165Z" transform="translate(-689.857 -308.03)" fill="#291b41"/>
      <path id="Path_11472" data-name="Path 11472" d="M1074.447,444.876a.306.306,0,0,1-.31-.358.333.333,0,1,1,.664.047C1074.792,444.785,1074.657,444.877,1074.447,444.876Z" transform="translate(-997.232 -392.857)" fill="#291b41"/>
      <path id="Path_11475" data-name="Path 11475" d="M813.948,216.755q0-.37,0-.74h.741c.063.557-.182.805-.74.741Z" transform="translate(-785.212 -206.908)" fill="#291b41"/>
      <path id="Path_11476" data-name="Path 11476" d="M762.946,296.244c.663.106,1.172-.57,1.855-.364a4.95,4.95,0,0,1-1.862.721Q762.943,296.423,762.946,296.244Z" transform="translate(-743.647 -271.957)" fill="#3e1b50"/>
      <path id="Path_11477" data-name="Path 11477" d="M810.025,626.322h2.62l0,.068h-2.693Z" transform="translate(-781.958 -541.255)" fill="#291b41"/>
      <path id="Path_11479" data-name="Path 11479" d="M663.262,403.991q.009.2.019.392a.585.585,0,0,1-.02.164l-.566.492C662.721,404.56,662.389,403.941,663.262,403.991Z" transform="translate(-661.927 -360.083)" fill="#291b41"/>
      <path id="Path_11480" data-name="Path 11480" d="M1111.925,330.847q0-.463,0-.926l.258-.473C1112.068,329.9,1112.727,330.5,1111.925,330.847Z" transform="translate(-1028.024 -299.342)" fill="#291b41"/>
      <path id="Path_11481" data-name="Path 11481" d="M793.912,254.282a.286.286,0,1,1,.541-.164c0,.628-.16,1.144-.865,1.3a.543.543,0,0,1-.087-.036c-.111-.248.043-.474.058-.712A4.215,4.215,0,0,1,793.912,254.282Z" transform="translate(-768.519 -237.776)" fill="#113b65"/>
      <path id="Path_11483" data-name="Path 11483" d="M826.636,212.057a3.621,3.621,0,0,1-1.124,1.114l-.054-.019a.294.294,0,0,1,.051-.362C825.7,212.255,826.174,212.169,826.636,212.057Z" transform="translate(-794.558 -203.684)" fill="#182e5a"/>
      <path id="Path_11486" data-name="Path 11486" d="M1027.706,190.178c.6-.274,1.108-.372,1.1.556-.484.231-.75-.244-1.131-.348h0A.14.14,0,0,1,1027.706,190.178Z" transform="translate(-959.341 -185.701)" fill="#291b41"/>
      <path id="Path_11487" data-name="Path 11487" d="M1027.821,191.976c.462-.159.751.24,1.131.348q0,.187,0,.373A1.4,1.4,0,0,1,1027.821,191.976Z" transform="translate(-959.491 -187.29)" fill="#152f60"/>
      <path id="Path_11488" data-name="Path 11488" d="M729.961,592.521q.239-.185,0-.37,0-.094,0-.189a2.015,2.015,0,0,1,1.111.739l-1.114,0Q729.961,592.613,729.961,592.521Z" transform="translate(-716.774 -513.256)" fill="#3b1c51"/>
      <path id="Path_11489" data-name="Path 11489" d="M748.294,608.98c.3.02.655-.077.74.37-.379-.075-.722.307-1.117.1C747.9,609.168,748.215,609.169,748.294,608.98Z" transform="translate(-731.405 -527.124)" fill="#291b41"/>
      <path id="Path_11490" data-name="Path 11490" d="M783.07,266.258c-.022.022-.041.057-.067.062-.276.056-.436.476-.783.267-.05-.03-.05-.26.008-.333.26-.328.552-.108.832-.01Z" transform="translate(-759.328 -247.706)" fill="#291b41"/>
      <path id="Path_11491" data-name="Path 11491" d="M888.289,174.308l-1.1,0c-.025-.12-.367-.281,0-.347a1.6,1.6,0,0,1,1.113.169A1.561,1.561,0,0,1,888.289,174.308Z" transform="translate(-844.754 -172.617)" fill="#291b41"/>
      <path id="Path_11494" data-name="Path 11494" d="M860.971,188.041l-.249.347a.712.712,0,0,1-.777.5.287.287,0,0,1-.175-.16l.4-.7Z" transform="translate(-822.551 -184.101)" fill="#132b58"/>
      <path id="Path_11495" data-name="Path 11495" d="M1029.447,180.175a.8.8,0,0,1-1.01.1C1028.725,179.945,1029.016,180.052,1029.447,180.175Z" transform="translate(-959.992 -177.607)" fill="#291b41"/>
      <path id="Path_11496" data-name="Path 11496" d="M1013.055,180.352c-.317-.044-.663.1-1.108-.256.516-.1.87-.31,1.108.255Z" transform="translate(-946.555 -177.539)" fill="#291b41"/>
      <path id="Path_11501" data-name="Path 11501" d="M1112.178,286.057a.992.992,0,0,1,.025,1.073A.892.892,0,0,1,1112.178,286.057Z" transform="translate(-1028.095 -263.984)" fill="#291b41"/>
      <path id="Path_11502" data-name="Path 11502" d="M797.913,249.13c-.012-.082-.025-.163-.037-.245q.007-.178.014-.357c.387-.125.31-.677.72-.782q.031.047.057.1C798.852,248.527,798.656,248.989,797.913,249.13Z" transform="translate(-772.116 -232.766)" fill="#10416b"/>
      <path id="Path_11503" data-name="Path 11503" d="M1078.37,436.925a.511.511,0,0,1,.372-.373c.2-.048.265.1.262.273s-.077.308-.274.277C1078.6,437.081,1078.411,437.141,1078.37,436.925Z" transform="translate(-1000.681 -386.61)" fill="#291b41"/>
      <path id="Path_11504" data-name="Path 11504" d="M1096.237,245.541a.775.775,0,0,1-.135-.995C1096.453,244.818,1096.329,245.109,1096.237,245.541Z" transform="translate(-1015.032 -230.158)" fill="#291b41"/>
      <path id="Path_11508" data-name="Path 11508" d="M1104.911,276.255c.048-.169-.075-.5.307-.362a.334.334,0,0,1,.182.517c-.229.305-.316-.1-.483-.15Z" transform="translate(-1022.309 -255.674)" fill="#291b41"/>
      <path id="Path_11514" data-name="Path 11514" d="M780.8,276.793a.312.312,0,0,1-.4.087c-.119-.049-.2-.151-.147-.282.08-.185.232-.148.371-.071C780.724,276.584,780.838,276.642,780.8,276.793Z" transform="translate(-757.739 -256.167)" fill="#291b41"/>
      <path id="Path_11517" data-name="Path 11517" d="M710.534,331.946c-.03.457-.117.859-.728.76l-.008-.009c-.122-.213.084-.267.181-.374Z" transform="translate(-700.313 -301.378)" fill="#71378b"/>
      <path id="Path_11519" data-name="Path 11519" d="M1080.358,233.887a.643.643,0,0,1,.027-.972A1.251,1.251,0,0,1,1080.358,233.887Z" transform="translate(-1002.132 -220.68)" fill="#291b41"/>
      <path id="Path_11520" data-name="Path 11520" d="M772.983,294.343c.182-.422.567-.37.92-.392l.206.023a.361.361,0,0,1-.2.455.369.369,0,0,1-.378-.089Z" transform="translate(-751.831 -270.417)" fill="#3e1b50"/>
      <path id="Path_11522" data-name="Path 11522" d="M706.912,333.985l-.181.374c-.305.109-.368.534-.734.564C706.184,334.5,706.367,334.064,706.912,333.985Z" transform="translate(-697.246 -303.039)" fill="#482963"/>
      <path id="Path_11527" data-name="Path 11527" d="M713.932,579.941q.091.007.182.02c-.052.278.36.451.173.754a.177.177,0,0,1-.159.059C713.784,580.566,713.986,580.223,713.932,579.941Z" transform="translate(-703.703 -503.461)" fill="#291b41"/>
      <path id="Path_11531" data-name="Path 11531" d="M1107.916,292.789c.032-.264-.086-.6.383-.733a.651.651,0,0,1-.383.734Z" transform="translate(-1024.757 -268.872)" fill="#291b41"/>
      <path id="Path_11532" data-name="Path 11532" d="M1095.875,433.482c0,.133-.063.247-.194.213-.086-.023-.158-.143-.206-.236-.012-.022.091-.143.154-.156A.2.2,0,0,1,1095.875,433.482Z" transform="translate(-1014.619 -383.966)" fill="#291b41"/>
      <path id="Path_11537" data-name="Path 11537" d="M961.925,167.239a1.152,1.152,0,0,1,1.223,0h-1.222Z" transform="translate(-905.794 -167.017)" fill="#291b41"/>
      <path id="Path_11538" data-name="Path 11538" d="M731.066,309.005a.2.2,0,0,1-.293.1c-.1-.05-.227-.165-.222-.243.012-.175.168-.1.273-.077S731.064,308.845,731.066,309.005Z" transform="translate(-717.254 -282.479)" fill="#291b41"/>
      <path id="Path_11540" data-name="Path 11540" d="M1108.3,367.927l-.365-.179a.687.687,0,0,1,.365-.746Z" transform="translate(-1024.771 -329.944)" fill="#281f4e"/>
      <path id="Path_11542" data-name="Path 11542" d="M1111.248,369.22c-.064-.194-.253-.376-.084-.592a.237.237,0,0,1,.231-.016c.245.264.019.432-.145.609Z" transform="translate(-1027.348 -331.237)" fill="#291b41"/>
      <path id="Path_11547" data-name="Path 11547" d="M1083.116,433.328c-.125.21-.246.214-.351.171-.062-.025-.151-.132-.138-.173.042-.133.169-.134.285-.1A1.5,1.5,0,0,1,1083.116,433.328Z" transform="translate(-1004.149 -383.893)" fill="#291b41"/>
      <path id="Path_11549" data-name="Path 11549" d="M1024.652,190.222l-.036.21-.345.007-.381-.394.747,0Q1024.641,190.132,1024.652,190.222Z" transform="translate(-956.287 -185.744)" fill="#152f60"/>
      <path id="Path_11550" data-name="Path 11550" d="M1084.3,248.095a.529.529,0,0,0,.012.171.256.256,0,0,1,0,.369l-.016.012c-.441-.111-.349-.464-.353-.774Z" transform="translate(-1005.224 -232.869)" fill="#3268ac"/>
      <path id="Path_11556" data-name="Path 11556" d="M777.72,294.411l.249-.335.531.008q0,.174.006.348l0,0A.688.688,0,0,1,777.72,294.411Z" transform="translate(-755.691 -270.518)" fill="#803a8d"/>
      <path id="Path_11562" data-name="Path 11562" d="M926.942,585.538c.031-.34.312-.429.555-.555Q927.532,585.572,926.942,585.538Z" transform="translate(-877.287 -507.569)" fill="#2f1e4a"/>
      <path id="Path_11564" data-name="Path 11564" d="M906.132,598.354c.31,0,.493-.25.742-.37-.07.582-.506.555-.925.556Z" transform="translate(-860.181 -518.164)" fill="#2f1e4a"/>
      <path id="Path_11566" data-name="Path 11566" d="M1087.524,432.626a1.191,1.191,0,0,1-.295.25c-.1.045-.138-.089-.1-.162a.684.684,0,0,1,.219-.261C1087.424,432.4,1087.518,432.448,1087.524,432.626Z" transform="translate(-1007.807 -383.263)" fill="#291b41"/>
      <path id="Path_11569" data-name="Path 11569" d="M1103.434,278.742c.047-.252-.379-.62.183-.744l.005.005c-.015.259.045.537-.189.74Z" transform="translate(-1021.015 -257.417)" fill="#291b41"/>
      <path id="Path_11572" data-name="Path 11572" d="M659.081,405.55c-.04.16-.11.258-.243.223a.214.214,0,0,1-.108-.184.264.264,0,0,1,.18-.15C658.964,405.431,659.031,405.515,659.081,405.55Z" transform="translate(-658.729 -361.265)" fill="#291b41"/>
      <path id="Path_11578" data-name="Path 11578" d="M890.256,168.015c-.037.2-.057.512-.246.5-.254-.02-.076-.326-.126-.5l.368,0Z" transform="translate(-847.079 -167.792)" fill="#291b41"/>
      <path id="Path_11579" data-name="Path 11579" d="M794.277,255.3a.373.373,0,0,1-.352.387c.029-.183-.1-.4.086-.539C794.041,255.125,794.185,255.246,794.277,255.3Z" transform="translate(-768.883 -238.795)" fill="#291b41"/>
      <path id="Path_11580" data-name="Path 11580" d="M794.379,229.087c-.049-.131-.109-.213-.092-.273s.119-.074.183-.109c.026.05.084.11.073.148A1.013,1.013,0,0,1,794.379,229.087Z" transform="translate(-769.189 -217.25)" fill="#291b41"/>
      <path id="Path_11582" data-name="Path 11582" d="M823.834,216.016q-.025.181-.051.362c-.39.126-.544.049-.312-.361Z" transform="translate(-792.884 -206.91)" fill="#291b41"/>
      <path id="Path_11591" data-name="Path 11591" d="M1098.372,396.334l-.355.366a1.022,1.022,0,0,1,.345-.745Q1098.368,396.144,1098.372,396.334Z" transform="translate(-1016.692 -353.536)" fill="#281f4e"/>
      <path id="Path_11598" data-name="Path 11598" d="M977.544,502.054a.384.384,0,0,1-.514.008A.391.391,0,0,1,977.544,502.054Z" transform="translate(-918.102 -439.918)" fill="#291b41"/>
      <path id="Path_11599" data-name="Path 11599" d="M778.426,285.4c-.132-.066-.1-.157-.059-.232a1.274,1.274,0,0,1,.168-.187c.017.079.062.165.043.233S778.477,285.343,778.426,285.4Z" transform="translate(-756.188 -263.109)" fill="#291b41"/>
      <path id="Path_11601" data-name="Path 11601" d="M1099.948,273.1l.121.2c-.049.026-.121.086-.141.072a.94.94,0,0,1-.158-.179Z" transform="translate(-1018.119 -253.428)" fill="#291b41"/>
      <path id="Path_11603" data-name="Path 11603" d="M1037.108,477.52a.824.824,0,0,1-.189.153c-.034.014-.1-.043-.146-.068a.951.951,0,0,1,.161-.177C1036.955,477.413,1037.027,477.474,1037.108,477.52Z" transform="translate(-966.786 -419.924)" fill="#291b41"/>
      <path id="Path_11604" data-name="Path 11604" d="M830.274,209.015q-.006.185-.012.37c-.135-.013-.35.037-.365-.12C829.875,209.04,830.112,209.05,830.274,209.015Z" transform="translate(-798.207 -201.205)" fill="#291b41"/>
      <path id="Path_11608" data-name="Path 11608" d="M786.531,273.02q-.017.257-.034.514C786.229,273.344,786.057,273.16,786.531,273.02Z" transform="translate(-762.628 -253.361)" fill="#291b41"/>
      <path id="Path_11609" data-name="Path 11609" d="M1098.806,269.621c-.082.038-.152.095-.177.079a.793.793,0,0,1-.154-.171c.048-.026.112-.086.141-.073A.944.944,0,0,1,1098.806,269.621Z" transform="translate(-1017.063 -250.455)" fill="#291b41"/>
      <path id="Path_11623" data-name="Path 11623" d="M828.726,359.168c-.212-.409-.621-.618-.938-.921-.184-.154-.424-.261-.464-.54-.072-.454.083-.83.547-.888.873-.109,1.072-.755,1.275-1.428a6.8,6.8,0,0,0,.791-1.477c.885-.8,1.647-1.721,2.578-2.466,1-.8,1.578-2.031,2.775-2.632.464-.233.7-.775.988-1.163a23.25,23.25,0,0,1,2.531-2.46c.769-.76,1.251-1.834,2.353-2.282.533-.217.843-.838,1.131-1.261a21.525,21.525,0,0,1,2.469-2.409c.714-.763,1.259-1.753,2.29-2.223.624-.285.512-1.094.96-1.526a.48.48,0,0,1,.4-.133.44.44,0,0,1,.248.157.728.728,0,0,1,.113.427c-.069.286-.042.582-.089.87a4.482,4.482,0,0,1-1.165,1.853c-.11.107-.262.23-.273.366-.137,1.739-1.668,2.751-2.233,4.3a3.606,3.606,0,0,1-1.575,2.188c-.443.225-.339.835-.615,1.205-.786,1.051-1,2.439-1.979,3.38-.106.1-.1.287-.139.436a7.592,7.592,0,0,1-1.745,3.348c-1.094,1.111-1.315,2.651-2.35,3.739-.306.321-.251.935-.3,1.427-.126,1.368-.124,1.368-1.474,1.241a.69.69,0,0,0-.346.063c.124.462.376,1-.1,1.4a1.321,1.321,0,0,1-1.426.382A34.651,34.651,0,0,1,828.726,359.168Z" transform="translate(-796.098 -304.155)" fill="#843f8f"/>
      <path id="Path_11624" data-name="Path 11624" d="M902.811,338.64l0-.923a.176.176,0,0,1,.208-.056.409.409,0,0,1,.161.424q0,14.272,0,28.545c0,.618.094,1.269-.871,1.213l1.111.094c-1.662.5-3.193,0-4.706.145a18.25,18.25,0,0,1-4.8-1.117c.4-.5.948-.307,1.585-.323-.739-.677-.739-1.3.006-1.881.337-.264.254-.673.259-1.036a3.335,3.335,0,0,1,.6-2.445c.291-.323.139-.834.147-1.262.011-.642.088-1.239.75-1.566.376-.186.37-.549.354-.885-.063-1.364.536-2.657.422-4.027a.793.793,0,0,1,.195-.606,2.246,2.246,0,0,0,.507-1.807,1.494,1.494,0,0,1,.748-1.566c.367-.184.354-.552.352-.891a2.93,2.93,0,0,1,.586-2.169c.278-.309.155-.771.158-1.167a1.734,1.734,0,0,1,.728-1.607.839.839,0,0,0,.376-.794,5.666,5.666,0,0,1,.887-3.511C902.722,339.214,902.621,338.871,902.811,338.64Z" transform="translate(-850.38 -306.024)" fill="#763f8f"/>
      <path id="Path_11625" data-name="Path 11625" d="M873.45,343.005a3.518,3.518,0,0,1-.446,2.018,8.07,8.07,0,0,0-.288,2.523c-.01.426-.015.79-.569.876-.439.069-.524.413-.558.827-.069.817.342,1.722-.636,2.393-.27.186-.082,1.049-.091,1.6-.009.52.1,1.087-.724,1.084-.372,0-.384.334-.386.619q-.005.739,0,1.478c0,.376.028.751-.463.876a.372.372,0,0,0-.263.439c.23,1.544-.544,3-.388,4.537.05.5,0,.935-.682.928-.371,0-.42.3-.421.592q0,.785,0,1.57c0,.344.016.679-.429.805-.346.1-.306.42-.309.694-.006.523-.009,1.047,0,1.571.008.5.03.92-.6,1.163-.6.23-.365.636.031.969.113.094.469.033.3.393-.125.261-.244.4-.566.375-.459-.037-.923-.008-1.385-.007a18.037,18.037,0,0,1-4.6-1.786c-.721-.323-1.384-.778-2.072-1.173.447.025.729-.352,1.12-.49a.51.51,0,0,0,.033-.978c-.2-.114-.408-.185-.35-.455.07-.326.353-.3.594-.3.514.012,1.232.259,1.486.014.282-.271.107-.988.192-1.5.106-.635,0-1.389.884-1.644.189-.055.117-.39.122-.6.008-.316,0-.629.4-.728a.379.379,0,0,0,.317-.4c-.054-.672.1-1.162.906-1.137-.019-.936.8-1.431,1.189-2.146.421-.766.109-1.947,1.252-2.315a.285.285,0,0,0,.148-.216c.023-1.174.941-1.906,1.4-2.866a2.98,2.98,0,0,0,.131-.622,2.453,2.453,0,0,1,.132-.5c1.309.131.86-1.48,1.756-1.767.2-.065.145-.385.144-.6,0-.356.018-.673.457-.788.3-.08.269-.372.29-.615.037-.431.159-.789.677-.837.434-.04.464-.377.42-.685a1.689,1.689,0,0,1,.793-1.741C872.928,344.091,872.983,343.4,873.45,343.005Z" transform="translate(-821.019 -310.389)" fill="#803c8e"/>
      <path id="Path_11626" data-name="Path 11626" d="M661.918,458.558a3.7,3.7,0,0,1,.012-.731c.081-.392.234-.031.357-.009a9.175,9.175,0,0,0,.36-3.17c-.031-.675.193-.917.891-.915,6.324.021,12.647.007,18.971.018.848,0,1.617.437,2.509.4,1.1-.047,2.117-.618,3.249-.42a3.5,3.5,0,0,1,1.343.252c.648.4,1.159-.163,1.74-.238a1.622,1.622,0,0,0,.923.185.224.224,0,0,1,.027.226.158.158,0,0,1-.21-.035l-.367,0a62.435,62.435,0,0,1-6.357,1.485c-.061.008-.151,0-.178.032-1.033,1.35-2.485.469-3.727.684-.518.09-1.078-.055-1.065.758.005.314-.283.359-.544.365a29.412,29.412,0,0,0-4.876.749c-.233.046-.453.115-.444.374.024.734-.443.724-.978.744-.79.03-1.672-.29-2.3.5a.1.1,0,0,1-.087.023c-1.814-.456-3.264.914-5,1-.785.04-1.583.312-2.414.335s-1.246-.186-1.1-1.073c-.156-.023.335-.827-.312-.259a2.12,2.12,0,0,1-.212-.392C662.045,459.156,661.988,458.855,661.918,458.558Z" transform="translate(-661.317 -400.582)" fill="#5e2e7c"/>
      <path id="Path_11627" data-name="Path 11627" d="M814.694,459.994c.063.558-.182.806-.741.74A1.021,1.021,0,0,1,814.694,459.994Z" transform="translate(-785.216 -405.72)" fill="#502c6f"/>
      <path id="Path_11628" data-name="Path 11628" d="M810.7,463.994c-.085.446-.441.35-.74.371C810.041,463.917,810.4,464.014,810.7,463.994Z" transform="translate(-781.961 -408.979)" fill="#502c6f"/>
      <path id="Path_11629" data-name="Path 11629" d="M942.134,308.655q-.091,0-.183-.008l.02-.365a.5.5,0,0,1,.3-.244,6,6,0,0,1,1.154-.133h.741c0,.218-.437.621.238.557.183-.017.37,0,.555,0,8.326,0,16.653-.016,24.979.025.813,0,1.6-.447,2.452-.051.281.131.273-.324.276-.545.013-1.017.006-2.034.006-3.058-.307.016-.085.336-.366.433v-3.29a13.277,13.277,0,0,1,.7,4.221,30.055,30.055,0,0,1-.6,8.67,8.128,8.128,0,0,0-.11.813l-.35.748c-1.068-.357-2.313-.189-3.248-.841a5.49,5.49,0,0,0-3.3-.655c-.645-.017-.94-.66-1.6-.8-1.7-.351-3.332-1.053-5.117-1.074a2.75,2.75,0,0,1-.925-.36,28.29,28.29,0,0,0-5.729-1.541c-.672-.134-1.714.076-2.113-.916-.033-.081-.279-.113-.424-.107a8.572,8.572,0,0,1-4.511-1.032,2.194,2.194,0,0,0-.815-.08c-.26-.017-.539.039-.742-.194s-.475-.166-.731-.172A.425.425,0,0,1,942.134,308.655Z" transform="translate(-889.518 -276.954)" fill="#45529c"/>
      <path id="Path_11630" data-name="Path 11630" d="M960.743,371.157a22.553,22.553,0,0,1-7.378,3.016c.029-.334-.408-.344-.461-.674l.711-.2c-.554-.25-.477-.785-.679-1.114-.672-1.093-.567-2.31-.854-3.454a10.179,10.179,0,0,0-.488-1.921c-.254-.55-.1-1.244-1.009-1.3-.247-.014-.191-.413-.193-.652a17.959,17.959,0,0,1,.018-2.4c.11-.872-.458-1.584-.423-2.42a.3.3,0,0,0-.293-.306c-.94.029-.813-.641-.78-1.208.072-1.24-.559-2.38-.6-3.547-.041-1.3-1.068-2.277-.9-3.575a.528.528,0,0,0-.059-.357c-1.164-1.491-1.24-3.283-1.413-5.049,1.323.376,1.531,1.657,2.139,2.619.911,1.442,1.314,3.19,2.455,4.458a4.859,4.859,0,0,1,1.119,2.068c.2.684.4,1.6,1.454,1.669.25.016.229.33.233.542.008.431.031.863,0,1.292-.051.68.059,1.165.918,1.062.449-.053.578.243.57.641-.007.337.231.622.3.89.316,1.225,1.58,1.935,1.795,3.057.27,1.409,1.251,2.059,2.141,2.883.378.35.2.815.193,1.221-.015.822-.005,1.578,1.08,1.667.225.019.229.125.132.3C960.27,370.727,960.52,370.94,960.743,371.157Z" transform="translate(-892.773 -312.833)" fill="#633e92"/>
      <path id="Path_11631" data-name="Path 11631" d="M942.937,338.064h.56q0,.18,0,.359h-.37Z" transform="translate(-890.321 -306.363)" fill="#524090"/>
      <path id="Path_11632" data-name="Path 11632" d="M754.017,455.628l.206-.029a.215.215,0,0,1,.328.034l.383.547c-.245.059-.653-.535-.732.184-1,.381-.54,1.325-.707,1.994-.333,1.339-.725,2.669-1,4.019-.353,1.742-1.653,3.25-1.267,5.172a.78.78,0,0,1-.1.532c-1.379,2.078-1.494,4.509-1.927,6.851-.043.235.038.582-.267.618-.8.094-.657.662-.66,1.169a19.464,19.464,0,0,1-1.135,4.955,9.733,9.733,0,0,0-.342,2.259c-.011.381.173.552.557.57a2.21,2.21,0,0,1,1.212.159c-.725.559-1.482-.27-2.157.183.131.37.523.078.749.4h-1.109a27.371,27.371,0,0,1-3.624-1.17c-1.513-.707-3.01-1.446-4.514-2.172q-.007-.178-.015-.356c1.029.313,1.673-.012,2.238-1.131a3.531,3.531,0,0,0,.434-.9c.232-1.367,1.681-2.08,1.824-3.512.047-.467.758-.579.924-1.14a6.538,6.538,0,0,0,.554-1.719c.019-.576.8-.719,1.018-1.286a8,8,0,0,1,1.709-2.624.976.976,0,0,0,.192-.786,1.272,1.272,0,0,1,.352-1.106c1.168-1.01,1.467-2.581,2.453-3.728a4.447,4.447,0,0,0,.787-1.721,3.745,3.745,0,0,1,.825-1.362,10.522,10.522,0,0,0,1.9-3.438C753.268,456.512,753.923,456.245,754.017,455.628Z" transform="translate(-723.245 -402.089)" fill="#482860"/>
      <path id="Path_11633" data-name="Path 11633" d="M944.544,325.853c-.218.589-.712.31-1.1.352-.286-.5-.029-.819.365-1.092A4.876,4.876,0,0,0,944.913,324h1.11c-.107.463-.977.422-.736,1.115C945.272,325.6,944.547,325.361,944.544,325.853Z" transform="translate(-890.632 -294.903)" fill="#1774b8"/>
      <path id="Path_11634" data-name="Path 11634" d="M985.947,278.983a13.368,13.368,0,0,1,2.962-2.962c0,.518.072.987-.619,1.255a2.114,2.114,0,0,0-1.088,1.087C986.934,279.055,986.464,278.986,985.947,278.983Z" transform="translate(-925.369 -255.806)" fill="#1774b8"/>
      <path id="Path_11635" data-name="Path 11635" d="M957.935,314.222a2.107,2.107,0,0,1,2.22-2.221A11.6,11.6,0,0,0,957.935,314.222Z" transform="translate(-902.543 -285.125)" fill="#1774b8"/>
      <path id="Path_11636" data-name="Path 11636" d="M1045.193,206.031a.844.844,0,0,1,.709.378h-.335C1045.509,206.218,1044.7,206.767,1045.193,206.031Z" transform="translate(-973.518 -198.773)" fill="#1b69a3"/>
      <path id="Path_11637" data-name="Path 11637" d="M824.587,319.513l-.328-.034c-.008-.054-.016-.108-.023-.162s0-.121,0-.181q0-.649,0-1.3a4.518,4.518,0,0,1-.367-1.957c-.035-8.654-.022-17.309-.009-25.963,0-1.2.315-1.563,1.5-1.378.956.149,1.91.165,2.861.27a12.3,12.3,0,0,0,1.826.055,1.809,1.809,0,0,1,.8.028,8.941,8.941,0,0,1,.96.491,2.282,2.282,0,0,0,.372.266c.194.118.341.274.259.524s-.284.3-.5.335c-.53.093-1.116-.141-1.583.276-.122.3.111.295.283.3.43.007.859.007,1.291-.028.372-.03.863.019.869.467.008.525-.488.529-.9.5-.084-.006-.161-.066-.23-.045a3.879,3.879,0,0,1,.237,2.756.738.738,0,0,1-.626.612c-.7.113-.76.588-.744,1.155.022.781.026,1.55-.85,1.971-.317.152-.227.538-.256.839a42,42,0,0,1-.68,5.089,10.269,10.269,0,0,0-.085,1.2c-.047.463-.047,1.02-.419,1.285-.74.528-.671,1.249-.675,1.981,0,.678-.2,1.221-.953,1.375-.484.1-.515.461-.518.847-.009,1.139,0,2.278,0,3.417a2.088,2.088,0,0,1-.5,1.626.912.912,0,0,0-.227.681c-.014.505.018.936.674.447a.337.337,0,0,1,.427.028c.046.87-.3,1.524-1.2,1.576C824.724,318.889,824.875,319.374,824.587,319.513Z" transform="translate(-793.28 -265.969)" fill="#8a3f8f"/>
      <path id="Path_11638" data-name="Path 11638" d="M903.543,199.557c.083.432-.335.7-.365,1.092l-.355.025-.009-.022a2.748,2.748,0,0,0-.738-.588.532.532,0,0,1-.134-.213.5.5,0,0,1,.068-.367c.388-.238.258-.644.315-.991a2.592,2.592,0,0,0,.476-1.823q-.013-11.409,0-22.818a8.518,8.518,0,0,1,.032-1.384c.071-.432-.008-.7-.478-.821a.582.582,0,0,1-.442-.712c.065-.4.371-.44.7-.442.451,0,.9,0,1.353,0a10.434,10.434,0,0,0-1.108.007c-.8.086-1.659-.124-2.144.938-.256.561-1.046.352-1.615.174a4.883,4.883,0,0,0-2.813,0,1.367,1.367,0,0,1-.441.076,2.211,2.211,0,0,0-.855.116c-.358.071-.721.317-1.07-.02q0-.2,0-.409l.606-.3a46.635,46.635,0,0,1,4.792-.945,32.59,32.59,0,0,1,7.184-.017c.305.034.615.02.923.028a10.373,10.373,0,0,1,2.951.611.384.384,0,0,0,.4.1c.424.532,1.087.428,1.641.615-1.355-.187-1.861.458-2.023,1.767-.153,1.239-.7,2.427-.889,3.666s-.636,2.4-.9,3.611a15.484,15.484,0,0,0-.612,2.564c-.029.57-.517.922-.613,1.542a27.741,27.741,0,0,1-1.181,4.448,23.318,23.318,0,0,0-.52,2.394c-.177.811-.53,1.548-.74,2.335q-.545,2.042-1.012,4.1C903.789,198.445,903.386,198.94,903.543,199.557Z" transform="translate(-850.37 -169.347)" fill="#1f88c8"/>
      <path id="Path_11639" data-name="Path 11639" d="M1085.951,250.366l0-.369a1.709,1.709,0,0,1,.732,1.3C1086.284,251.108,1086.266,250.621,1085.951,250.366Z" transform="translate(-1006.856 -234.6)" fill="#2a427c"/>
      <path id="Path_11640" data-name="Path 11640" d="M662.306,457.4c-.5-.138-.352-.556-.364-.888-.019-.506,0-1.013,0-1.519.489.161.478.551.449.958C662.352,456.433,662.332,456.917,662.306,457.4Z" transform="translate(-661.337 -401.644)" fill="#5e2e7c"/>
      <path id="Path_11641" data-name="Path 11641" d="M791.169,287.482a2.2,2.2,0,0,0-1.352-.039,1.233,1.233,0,0,1-.958-.173c-1.176-.552-1.777-.157-1.777,1.109q0,13.9,0,27.8c-.224-.029-.456-.09-.479-.35-.13-1.456-1.031-2.725-1.022-4.215,0-.109-.078-.3-.142-.315-1.1-.17-.7-1.026-.758-1.659-.046-.54.093-1.094-.423-1.534-.266-.227-.107-.646-.139-.978-.07-.728.141-1.444-.448-2.162-.324-.395-.1-1.247-.1-1.893,0-.391-.009-.752-.535-.794-.313-.025-.408-.264-.384-.531.058-.635-.121-.954-.853-.963a.788.788,0,0,1-.433-1.376.973.973,0,0,0,.037-1.519,1.246,1.246,0,0,1-.239-.95c-.007-.8,0-1.6,0-2.4,0-.507.134-1.07-.625-1.221-.272-.054-.287-.367-.3-.62a1.278,1.278,0,0,0-.214-.775c-.677-.934-.471-1.355.678-1.479.117-.013.247-.011.316-.266a10.178,10.178,0,0,0-2.046-.1c-.286-.022-.69.1-.717-.36-.024-.408.344-.343.605-.387.65-.108.434-.723.634-1.094a1.828,1.828,0,0,0,1.659-.75l.088-.117c.559-.308,1.277.008,1.8-.459a18.666,18.666,0,0,0,2.124-.418,23.025,23.025,0,0,1,5.016.22,2.5,2.5,0,0,1,.953.3A.35.35,0,0,1,791.169,287.482Z" transform="translate(-756.124 -264.313)" fill="#843c8d"/>
      <path id="Path_11642" data-name="Path 11642" d="M780.894,386.38c-.521,0-1.042.014-1.563,0a1.42,1.42,0,0,1-1.394-1.384c-.021-.7-.007-1.409,0-2.114,0-.179-.016-.388.192-.477s.308.119.449.222c.616.446.506,1.055.389,1.663-.218,1.126-.067,1.284,1.017,1.076.3-.057.606-.062.909-.091Q780.893,385.825,780.894,386.38Z" transform="translate(-755.859 -342.472)" fill="#71378b"/>
      <path id="Path_11643" data-name="Path 11643" d="M798.832,414.185c-.144.318.448.576.105.865a.508.508,0,0,1-.669-.048c-.379-.612.044-.851.563-1Q798.832,414.092,798.832,414.185Z" transform="translate(-772.316 -368.241)" fill="#71378b"/>
      <path id="Path_11644" data-name="Path 11644" d="M771.875,369.638c-.244,0-.49.018-.732-.005s-.672.109-.647-.279.4-.222.657-.175c.238.043.481.061.722.09Z" transform="translate(-749.803 -331.654)" fill="#71378b"/>
      <path id="Path_11645" data-name="Path 11645" d="M773.194,295.886l.783.024c-.064.136.171.479-.082.4a1.319,1.319,0,0,0-.778-.036c-.258.061-.518.11-.952.2l.7-.553Z" transform="translate(-751.165 -271.993)" fill="#843c8d"/>
      <path id="Path_11646" data-name="Path 11646" d="M794.324,404c-.045.377.109.78-.187,1.238-.281-.433-.141-.855-.182-1.24Z" transform="translate(-768.92 -360.09)" fill="#71378b"/>
      <path id="Path_11647" data-name="Path 11647" d="M799.928,404.306a1.009,1.009,0,0,1,1.059-.138C800.662,404.54,800.372,404.433,799.928,404.306Z" transform="translate(-773.788 -360.159)" fill="#843c8d"/>
      <path id="Path_11648" data-name="Path 11648" d="M808.188,415.372c.28.287.2.5.071.8C807.965,415.909,807.991,415.688,808.188,415.372Z" transform="translate(-780.397 -369.359)" fill="#843c8d"/>
      <path id="Path_11649" data-name="Path 11649" d="M792.2,384.318c-.2-.355-.253-.569.024-.813C792.435,383.754,792.419,383.969,792.2,384.318Z" transform="translate(-767.357 -343.391)" fill="#843c8d"/>
      <path id="Path_11650" data-name="Path 11650" d="M713.962,336.747c.282-.572.938-.433,1.379-.711.133-.084.368.023.418.246a.329.329,0,0,1-.328.442c-.489.027-.979.018-1.469.023Z" transform="translate(-703.737 -304.687)" fill="#71378b"/>
      <path id="Path_11651" data-name="Path 11651" d="M726.5,324.713a1.918,1.918,0,0,1,.206,1.276c0,.238-.114.424-.383.4-.335-.031-.378-.3-.31-.54A8.607,8.607,0,0,0,726.5,324.713Z" transform="translate(-713.534 -295.484)" fill="#71378b"/>
      <path id="Path_11652" data-name="Path 11652" d="M741.218,320.918c-.188-.026-.467.033-.437-.209a.586.586,0,0,1,.567-.49.3.3,0,0,1,.35.319C741.7,320.877,741.446,320.9,741.218,320.918Z" transform="translate(-725.589 -291.82)" fill="#71378b"/>
      <path id="Path_11653" data-name="Path 11653" d="M746.033,335.7c.017-.195.065-.384.308-.363.3.026.4.244.385.517a.306.306,0,0,1-.369.306C746.074,336.141,746.034,335.934,746.033,335.7Z" transform="translate(-729.87 -304.143)" fill="#71378b"/>
      <path id="Path_11654" data-name="Path 11654" d="M762.1,353.508c-.018-.447-.335-.762.052-1.017.135-.089.279.074.361.193C762.785,353.072,762.4,353.18,762.1,353.508Z" transform="translate(-742.854 -318.098)" fill="#71378b"/>
      <path id="Path_11655" data-name="Path 11655" d="M858.832,497.412c.046.052.165.125.18.216.031.189-.119.244-.279.236-.118-.006-.253-.035-.247-.189S858.6,497.416,858.832,497.412Z" transform="translate(-821.504 -436.211)" fill="#2f1e4a"/>
      <path id="Path_11656" data-name="Path 11656" d="M903.9,580.5c-.013.133-.085.216-.221.19a.208.208,0,0,1-.181-.25.24.24,0,0,1,.172-.144A.21.21,0,0,1,903.9,580.5Z" transform="translate(-858.18 -503.748)" fill="#2f1e4a"/>
      <path id="Path_11676" data-name="Path 11676" d="M845.914,196.764q-.006-.2-.012-.4l.756-.691c.289-.227.5-.594.943-.554a.606.606,0,0,1,.251.118,1.972,1.972,0,0,1,.432.794.681.681,0,0,1-.1.691.446.446,0,0,1-.661.012C846.962,196.2,846.454,197.092,845.914,196.764Z" transform="translate(-811.25 -189.876)" fill="#2791cb"/>
      <path id="Path_11677" data-name="Path 11677" d="M850.863,191.215l-.875.427c.125-.268.245-.539.377-.8.385-.766.732-.853,1.434-.368l.039.049c.083.2-.04.318-.16.441a.9.9,0,0,1-.212.135C851.271,191.165,851.056,191.134,850.863,191.215Z" transform="translate(-814.58 -185.849)" fill="#132b58"/>
      <path id="Path_11678" data-name="Path 11678" d="M969.809,171.642l-2.951-.611,1.306-.016c.248.238.563.175.859.185C969.365,171.212,969.7,171.217,969.809,171.642Z" transform="translate(-909.814 -170.24)" fill="#202863"/>
      <path id="Path_11680" data-name="Path 11680" d="M830.881,195.456a.823.823,0,0,0,.521-.349c.379-.431.749-.479,1.153-.025.105.118.245.351.442.167.156-.145.074-.356-.055-.5a.993.993,0,0,1-.21-.774c.084-.163.258-.242.359-.389l.028.013a.4.4,0,0,1,.578.067c.573.761,1.551,1.294,1.438,2.456a.378.378,0,0,0,.338.461c.825.164.939.776.936,1.469,0,.73-.128,1.511.946,1.661.321.045.39.427.515.714.366.84.414,1.864,1.361,2.383a.664.664,0,0,1,.275.566,3.1,3.1,0,0,0,1.094,1.955,6.32,6.32,0,0,1,1.8,2.84c.123.564.676.947.9,1.488.768,1.836,2.122,3.307,3.081,5.013a17.638,17.638,0,0,1,.967,2.044c.178.443.161.929-.45,1.115a.69.69,0,0,1-.522-.187.873.873,0,0,1-.16-.217c-.078-.353-.234-.62-.658-.594a1.058,1.058,0,0,1-.638-.18.781.781,0,0,1-.235-.33,14.963,14.963,0,0,0-2.139-2.336q-5.379-5.277-10.638-10.674c-1.378-1.405-2.884-2.685-4.152-4.2-.172-.205-.456-.366-.219-.7Z" transform="translate(-796.218 -188.569)" fill="#1899d6"/>
      <path id="Path_11681" data-name="Path 11681" d="M798.332,220.042c1.116,1.055,2.137,2.2,3.263,3.254,1.286,1.2,2.447,2.557,3.724,3.79,1.143,1.1,2.216,2.28,3.342,3.4,1.774,1.766,3.589,3.492,5.338,5.283.488.5.719,1.244,1.546,1.393.1.018.124.43.184.659a.677.677,0,0,1-.975-.051,2.237,2.237,0,0,0-.839-.517c-.376-.264-.666-.659-1.15-.762a305.48,305.48,0,0,0-1.493-.756,1.619,1.619,0,0,0-.635-.3,1.09,1.09,0,0,1-.212-.108c-.2-.207-.487-.231-.72-.368-.293-.26-.656-.192-1-.216a1.007,1.007,0,0,1-.346-.082,2.206,2.206,0,0,0-.721-.355,1.1,1.1,0,0,1-.206-.109c-.168-.174-.413-.2-.615-.306a1.9,1.9,0,0,0-.735-.345,1.062,1.062,0,0,1-.217-.124,15.139,15.139,0,0,1-2.073-.72c-.259-.594-.808-.425-1.271-.482-.36-.045-.809-.008-.916-.452-.1-.422.33-.525.5-.639-1.053-.295-2.418.065-3.133-1.347a1.287,1.287,0,0,0-1.135-.51,1.639,1.639,0,0,1-1.453-.834,1.5,1.5,0,0,0-1.368-.747c-.451-.049-.93.076-1.322-.279-.438,1.441-1.027,1.968-2.07,1.9a.264.264,0,0,1,.025-.25l.425-1.227a123.151,123.151,0,0,1,1.482-2.563l.656-.8a13.943,13.943,0,0,0,2.261-2.959l-.007,0C797.277,221.258,797.538,220.31,798.332,220.042Z" transform="translate(-767.005 -210.191)" fill="#1ca2dd"/>
      <path id="Path_11682" data-name="Path 11682" d="M871.7,205.068c.675-.322.479-.77.138-1.188-.365-.448-.747-.869-.614-1.512.047-.226-.122-.247-.272-.273-.182-.031-.456-.043-.445-.244.041-.737-.493-1.112-.861-1.624-.319-.443-.29-1.147-1.064-1.205-.067,0-.164-.256-.164-.392a3.938,3.938,0,0,0-1.227-2.473c-.076-.092-.215-.179-.221-.274-.09-1.558-1.229-2.441-2.194-3.433a1.624,1.624,0,0,1-.611-1.1c0-.63.005-1.18-.866-1.175-.254,0-.252-.31-.259-.524a3.194,3.194,0,0,0-.329-.975c-.288-.808-.4-1.613-1.544-1.519-.142.012-.161-.3-.163-.488,0-.431-.03-.865,0-1.293.049-.676-.05-1.157-.916-1.07-.507.051-.724-.285-.437-.7a.7.7,0,0,0-.154-1.045c-.575-.452-.754-1.245-1.44-1.577l.355-.362.913-.385c.993.094,1.727-.6,2.585-.9.925-.326,1.832-.706,2.788-.946.393.094.587-.325.93-.36a1.067,1.067,0,0,0,.924,0h.369c.21.018.471-.028.542.239.058.219-.157.317-.311.395a.463.463,0,0,0-.261.668c.754,2.182,1.131,4.465,1.762,6.681.295,1.034,0,2.157.434,3.187.119.284.143.587.476.734.57.252.657.767.671,1.312a10.473,10.473,0,0,0,1.278,5.016,1.093,1.093,0,0,1,.13.627,10.21,10.21,0,0,0,.57,3.349,4.927,4.927,0,0,1,.24,1.449c-.007.152-.075.352.049.442,1.071.784.679,1.859.586,2.872a.5.5,0,0,0,.128.421c.278.061.417.23.308.5-.126.319-.438.21-.684.245C872.075,206.189,871.745,205.871,871.7,205.068Z" transform="translate(-821.159 -175.954)" fill="#1895d1"/>
      <path id="Path_11683" data-name="Path 11683" d="M786.98,258.778c.413-.441,1.112-.5,1.43-1.054a1.77,1.77,0,0,0,.134-.535c.06-.309-.313-.715.1-.921.5-.246.457.5.673.507.578.027,1.15.09,1.725.134.416.032.629.116.767.582a1.212,1.212,0,0,0,1.222.917c.82,0,1.6.113,1.737,1.167.028.213.218.282.415.294,1.027.062,1.993.594,3.057.392a.334.334,0,0,1,.422.225,4.5,4.5,0,0,0-1.664.742,3.108,3.108,0,0,0,1.419.125c.553-.019.815.184.753.749-.812.534-1.639.192-2.475.067a17.318,17.318,0,0,0-6.657.044,12.823,12.823,0,0,1-2.183.169,2.459,2.459,0,0,0-1.278.446l-.343.029c-.625-.276-.425-.719-.2-1.125a3.262,3.262,0,0,0,.527-2.237v.007C786.849,259.341,786.721,258.95,786.98,258.778Z" transform="translate(-762.293 -239.669)" fill="#17a9e1"/>
      <path id="Path_11685" data-name="Path 11685" d="M789.934,287.854a1.073,1.073,0,0,1,1.215-.728c.7.022,1.4-.009,2.1-.017a1.244,1.244,0,0,1,1.352.038,5.767,5.767,0,0,1-2.067.355c-.566.424-1.3-.052-1.87.348l0,.017Z" transform="translate(-765.644 -264.694)" fill="#3297d5"/>
      <path id="Path_11686" data-name="Path 11686" d="M790.27,268.983c-.053.289.057.669-.408.725a1.372,1.372,0,0,1,.366-.967Z" transform="translate(-765.582 -249.875)" fill="#3297d5"/>
      <path id="Path_11687" data-name="Path 11687" d="M807.953,227.958a4.1,4.1,0,0,1-2.261,2.959l.828-1.435C807.116,229.085,807.318,228.318,807.953,227.958Z" transform="translate(-778.485 -216.641)" fill="#3096ce"/>
      <path id="Path_11688" data-name="Path 11688" d="M831.348,325.173a.51.51,0,0,0-.4.339c-.147.3-.385.653-.732.552-.284-.082-.365-.489-.342-.8.047-.62-.312-1.375.6-1.735.221-.088.129-.452.13-.693.005-1.388.019-2.777-.005-4.164-.01-.578.085-.983.793-.907.521.056.721-.207.7-.713s0-.987-.005-1.48c-.007-.4.042-.676.541-.8.609-.151.493-.781.559-1.236a49.692,49.692,0,0,1,.7-4.938,8.012,8.012,0,0,0,.048-1.936c0-.412.057-.747.579-.743.47,0,.541-.31.534-.687s.023-.742-.005-1.11c-.055-.731.071-1.061.982-1.239,1.086-.213.3-1.349.486-2.052.1-.381.059-.831-.554-.833a1.047,1.047,0,0,1-.87-.233c.847-.288,1.656,0,2.389-.312a5.469,5.469,0,0,0-2.371-.139c-.275.021-.513-.038-.569-.336-.075-.4.212-.451.513-.462l.124.013c.567.237,1.069-.061,1.593-.193a6.26,6.26,0,0,1,3.479.192c.243.081.5.086.747.151.247.038.516,0,.711.215l0,.009a1.519,1.519,0,0,1,.238.228.79.79,0,0,0,.449.288,1.4,1.4,0,0,1,.214.091,5.513,5.513,0,0,0,.622.361.866.866,0,0,1,.173.182c.2.531.992.565,1.025,1.232-.251.422-.974.69-.412,1.38.112.138-.036.418-.216.445-1.159.177-1.159,1.246-1.474,2-.243.581-.412,1.078-1.1,1.186-.333.052-.447.32-.48.6-.2,1.745-1.6,2.994-1.94,4.683-.036.182-.17.387-.344.409-1.121.142-1.2,1.158-1.471,1.89-.417,1.118-.9,2.217-1.229,3.368-.087.3-.211.66-.531.705-.975.137-1.059.935-1.214,1.621s-.275,1.279-1.02,1.618c-.42.191-.525.722-.539,1.209a1.605,1.605,0,0,1-.366,1.29C832.12,324.326,832.114,324.939,831.348,325.173Z" transform="translate(-798.168 -273.86)" fill="#8e3e8d"/>
      <path id="Path_11689" data-name="Path 11689" d="M841.908,335.887c0-.462-.025-.926.006-1.386.051-.743.138-1.48,1.107-1.6.319-.04.365-.292.362-.552a6.108,6.108,0,0,1,.241-1.147c.14-.8.263-1.445,1.3-1.283.075.012.259-.149.252-.215-.077-.785.474-1.376.675-2.073a5.84,5.84,0,0,1,.863-2.159.656.656,0,0,0,.186-.5c-.091-.731.222-1.026.946-.945.22.025.485-.039.5-.3a4.145,4.145,0,0,1,.512-1.484c.229-.529.224-.993.854-1.4.421-.27.452-1.267.506-1.951.048-.6.251-.84.837-.782.541.054.68-.248.678-.734,0-.726.668-1.213.676-2.006,0-.449.846-.017,1.21-.374-.1-.513-.72-.66-.824-1.163.359-.425,1.112.184,1.339-.53a.435.435,0,0,1,.479-.148c.144.056.3.158.286.3-.046.622.211.125.339.1.355-.134.561.129.8.3a1.816,1.816,0,0,0,.628.363.886.886,0,0,1,.208.124,1.766,1.766,0,0,0,.868.589.936.936,0,0,1,.213.127,9.491,9.491,0,0,0,1.717,1.583l.008-.006c.179.213.663.265.38.721-.257.77-.088,1.763-1.271,2.018a1.55,1.55,0,0,0-.925.983,1,1,0,0,1-.76.724c-.06.012-.163.036-.166.063-.145,1.314-1.994,1.123-2.141,2.428-.937.232-.87,1.588-1.942,1.714-.308.036-.572.357-.735.667-.256.487-.438,1.039-1.108,1.11-.01,1.118-1.4.921-1.647,1.639-.322.931-1.554,1.085-1.611,2.159-.01.19-.286.2-.47.213a.964.964,0,0,0-.779.444c-.413.913-1.3,1.378-1.891,2.117-.62.773-1.644,1.162-2.1,2.13C842.462,335.877,842.117,335.85,841.908,335.887Z" transform="translate(-807.988 -286.054)" fill="#953e8f"/>
      <path id="Path_11690" data-name="Path 11690" d="M938.3,332.7l-.38-.721c.549-.071.812.159.757.721Z" transform="translate(-886.231 -301.391)" fill="#596bb9"/>
      <path id="Path_11691" data-name="Path 11691" d="M809.21,286.257l-1.352-.038c.153-.441.532-.345.856-.346,1.785-.006,3.578-.1,5.354.033a17.969,17.969,0,0,0,3.063.332,3.194,3.194,0,0,1,2.219.743c-.495.446-1,.111-1.5.013l-.707-.028c-.561-.419-1.3.086-1.859-.367A36.49,36.49,0,0,0,809.21,286.257Z" transform="translate(-780.25 -263.804)" fill="#2c9cda"/>
      <path id="Path_11692" data-name="Path 11692" d="M863.149,294.67c-1.185-.671-2.477-.238-3.715-.358a1.439,1.439,0,0,1-1.48,0h0c.148-.522.585-.319.922-.366.379-.052.787.112,1.159-.138-.09-.336-.617-.2-.6-.6.179-.232.438-.171.677-.186a2.393,2.393,0,0,1,.43.029c.308.313.778.282,1.119.525l0,.009c.2.237.554.122.761.34l.345.024c.192.137.44.221.473.507A.33.33,0,0,1,863.149,294.67Z" transform="translate(-821.071 -269.656)" fill="#784a8f"/>
      <path id="Path_11693" data-name="Path 11693" d="M848,289.837c.624.1,1.346-.3,1.859.367l-1.853.006Q848,290.024,848,289.837Z" transform="translate(-812.957 -267.042)" fill="#5662b0"/>
      <path id="Path_11694" data-name="Path 11694" d="M863.361,292.378l-.751.014a1.318,1.318,0,0,1-.754-.358l1.5-.013h0A.238.238,0,0,1,863.361,292.378Z" transform="translate(-824.251 -268.844)" fill="#4985c4"/>
      <path id="Path_11695" data-name="Path 11695" d="M909.2,200.446c-.423-.1-.366-.436-.37-.738-.006-.524,0-1.048,0-1.572,0-.429-.091-.774-.645-.533-.135.059-.27.212-.392.032a.311.311,0,0,1,.063-.421c.526-.426.277-.988.154-1.43a9.013,9.013,0,0,1-.675-4.074.379.379,0,0,0-.042-.268,8.513,8.513,0,0,1-1.425-5.412c0-.239.071-.59-.2-.663-1.529-.415-1.1-1.77-1.19-2.726a29.605,29.605,0,0,0-.6-3.207c-.266-1.323-.663-2.619-.96-3.937a2.9,2.9,0,0,0-.3-.852c-.626-1.084-.593-1.142.631-1.3l-.341-.291a3.459,3.459,0,0,1,3.163-.087,1.98,1.98,0,0,0,1.29.023c.1-.362-.579-.443-.3-.833.245-.346.62-.2.939-.207a41.62,41.62,0,0,1,4.373.131,3.191,3.191,0,0,1-1.643.228c-.369.016-.74-.011-1.108.009-.285.015-.7-.107-.725.345-.024.47.4.369.683.385a6.478,6.478,0,0,1,.976.076c-.767.385-.608,1.042-.608,1.641q0,11.781.009,23.561C909.946,199.144,910.013,199.938,909.2,200.446Z" transform="translate(-857.133 -170.979)" fill="#1b8dcc"/>
      <path id="Path_11696" data-name="Path 11696" d="M929.733,324.847c-.955-.074-1.362-.83-1.85-1.485a.278.278,0,0,1,.369-.13l.347.139a2.419,2.419,0,0,0,1.142,1.1Q929.737,324.66,929.733,324.847Z" transform="translate(-878.054 -294.257)" fill="#5f64a9"/>
      <path id="Path_11697" data-name="Path 11697" d="M899.882,178.034a.66.66,0,0,1-.924,0Z" transform="translate(-854.484 -175.959)" fill="#1b8dcc"/>
      <path id="Path_11698" data-name="Path 11698" d="M793.894,290.235c.527-.635,1.241-.26,1.87-.348C795.254,290.613,794.516,290.111,793.894,290.235Z" transform="translate(-768.871 -267.08)" fill="#5061aa"/>
      <path id="Path_11700" data-name="Path 11700" d="M855.307,193.952a.362.362,0,0,1-.359.389l-.232-.044A.869.869,0,0,1,855.307,193.952Z" transform="translate(-818.433 -188.931)" fill="#4673a4"/>
      <path id="Path_11701" data-name="Path 11701" d="M912.52,312.937c-.25-.113-.414-.387-.723-.389-.17-.025-.261-.168-.386-.261a.38.38,0,0,1-.115-.322.263.263,0,0,1,.158-.162c.758-.1,1.031.921,1.805.787q.008.172.016.344l-.1.109A.531.531,0,0,1,912.52,312.937Z" transform="translate(-864.533 -284.959)" fill="#4f7cbf"/>
      <path id="Path_11702" data-name="Path 11702" d="M923,318.941l-.369.13a.648.648,0,0,0-.158-.016,8.226,8.226,0,0,1-.948-.718l-.005,0a.256.256,0,0,1-.032-.339l.056-.052.7.026a1.49,1.49,0,0,1,.756.742Z" transform="translate(-872.798 -289.966)" fill="#4d80be"/>
      <path id="Path_11703" data-name="Path 11703" d="M926.563,318.8a1.212,1.212,0,0,1-.756-.742C926.349,318.009,926.6,318.255,926.563,318.8Z" transform="translate(-876.362 -290.056)" fill="#1895d1"/>
      <path id="Path_11704" data-name="Path 11704" d="M918.9,308.467c-.109-.025-.256-.027-.213-.193.015-.056.123-.109.2-.123.115-.022.248.007.26.147C919.157,308.456,919.016,308.458,918.9,308.467Z" transform="translate(-870.555 -281.983)" fill="#1895d1"/>
      <path id="Path_11705" data-name="Path 11705" d="M905.477,307.81a1.247,1.247,0,0,1,1.137.744l-.067.055c-.651.367-.969.009-1.2-.55A.352.352,0,0,1,905.477,307.81Z" transform="translate(-859.694 -281.71)" fill="#5779c0"/>
      <path id="Path_11706" data-name="Path 11706" d="M884.3,298.372a.806.806,0,0,1-.4-.439c.394.057.894-.225,1.128.35l-.081.109A.619.619,0,0,1,884.3,298.372Z" transform="translate(-842.214 -273.646)" fill="#3c93d1"/>
      <path id="Path_11707" data-name="Path 11707" d="M872.943,294.008a1.386,1.386,0,0,1-1.138-.356.312.312,0,0,1,.4-.045C872.494,293.668,872.877,293.549,872.943,294.008Z" transform="translate(-832.358 -270.093)" fill="#5286cc"/>
      <path id="Path_11708" data-name="Path 11708" d="M870.686,292.357l-.4.045-.338-.026q0-.178-.009-.357C870.23,292.031,870.572,291.941,870.686,292.357Z" transform="translate(-830.834 -268.842)" fill="#2c9cda"/>
      <path id="Path_11709" data-name="Path 11709" d="M901.568,305.842c.284.036.618-.025.725.364l-.033.067a.507.507,0,0,1-.716-.036h0a.255.255,0,0,1-.07-.321Z" transform="translate(-856.51 -280.106)" fill="#4587ca"/>
      <path id="Path_11710" data-name="Path 11710" d="M897.6,303.891c.294.02.618-.022.732.361l-.069.07a.524.524,0,0,1-.693-.054l.009-.006a.224.224,0,0,1-.078-.307Z" transform="translate(-853.271 -278.516)" fill="#4587ca"/>
      <path id="Path_11711" data-name="Path 11711" d="M893.912,302.338q-.013-.164-.026-.328c.327-.041.642-.053.79.333l-.071.043A.466.466,0,0,1,893.912,302.338Z" transform="translate(-850.351 -276.968)" fill="#4d80be"/>
      <path id="Path_11712" data-name="Path 11712" d="M890.314,300.307l-.707-.025c-.135-.085-.134-.191-.05-.311l.033-.059C889.874,299.968,890.257,299.838,890.314,300.307Z" transform="translate(-846.777 -275.274)" fill="#4589c7"/>
      <path id="Path_11713" data-name="Path 11713" d="M878.688,296.345c-.306,0-.658.112-.761-.34C878.237,295.993,878.571,295.925,878.688,296.345Z" transform="translate(-837.347 -272.082)" fill="#4d7cb4"/>
      <path id="Path_11714" data-name="Path 11714" d="M901.925,307.98l.716.036a1.117,1.117,0,0,0,1.1.732q.025.167.051.333a.124.124,0,0,1-.21.022l-.555,0C902.609,308.778,901.8,308.839,901.925,307.98Z" transform="translate(-856.891 -281.848)" fill="#794a8f"/>
      <path id="Path_11715" data-name="Path 11715" d="M857.954,300h1.48A.843.843,0,0,1,857.954,300Z" transform="translate(-821.071 -275.349)" fill="#8a3f8f"/>
      <path id="Path_11716" data-name="Path 11716" d="M894.026,303.867l.693.048q.025.165.05.329C894.456,304.248,894.092,304.352,894.026,303.867Z" transform="translate(-850.465 -278.497)" fill="#724d9a"/>
      <path id="Path_11717" data-name="Path 11717" d="M886.719,300.233q.024.156.049.311l-.753.005c0-.1.006-.19.01-.286Z" transform="translate(-843.937 -275.536)" fill="#596099"/>
      <path id="Path_11718" data-name="Path 11718" d="M897.992,305.932l.694.054q.021.162.043.324A.636.636,0,0,1,897.992,305.932Z" transform="translate(-853.697 -280.18)" fill="#794a8f"/>
      <path id="Path_11719" data-name="Path 11719" d="M910.12,313.952l.21-.022a.363.363,0,0,1,.36.356l-.535,1.034C909.607,314.828,910.261,314.392,910.12,313.952Z" transform="translate(-863.427 -286.697)" fill="#8e3e8d"/>
      <path id="Path_11720" data-name="Path 11720" d="M927.075,332.655c-.055.259-.259.224-.432.225-.254,0-.5-.034-.509-.369a.3.3,0,0,1,.34-.33C926.787,332.191,926.936,332.424,927.075,332.655Z" transform="translate(-876.629 -301.569)" fill="#81488f"/>
      <path id="Path_11721" data-name="Path 11721" d="M921.9,320.072c.483.019.7.393.949.719A.961.961,0,0,1,921.9,320.072Z" transform="translate(-873.182 -291.702)" fill="#6f5294"/>
      <path id="Path_11722" data-name="Path 11722" d="M918.629,318l.032.339c-.309-.007-.649.046-.73-.389Z" transform="translate(-869.945 -289.976)" fill="#6f5294"/>
    </g>
    <path id="Path_11723" data-name="Path 11723" d="M1.608-17.427H2.892V-16H1.608Zm0,2.875H2.892v7.676H1.608Zm3.24,0h.978l.146,1.036h.1a2.938,2.938,0,0,1,2.583-1.211,2.4,2.4,0,0,1,1.773.62,2.73,2.73,0,0,1,.62,1.992v5.239H9.766v-5.152A1.639,1.639,0,0,0,9.357-13.3a1.743,1.743,0,0,0-1.182-.358,2.005,2.005,0,0,0-1.022.27,1.954,1.954,0,0,0-.744.781,2.471,2.471,0,0,0-.277,1.2v4.539H4.848ZM19.106-6.7a3.349,3.349,0,0,1-1.766-.467,1.813,1.813,0,0,1-.773-1.693,2.009,2.009,0,0,1,1.313-2.021,10.262,10.262,0,0,1,3.794-.547v-.846A1.346,1.346,0,0,0,21.3-13.3a2.011,2.011,0,0,0-1.372-.358,2.025,2.025,0,0,0-1.335.35,1.1,1.1,0,0,0-.4.861v.175h-1.24a2.314,2.314,0,0,1-.015-.321,1.776,1.776,0,0,1,.846-1.576,4.076,4.076,0,0,1,2.262-.555,3.407,3.407,0,0,1,2.174.6,2.048,2.048,0,0,1,.744,1.693v4.159a.48.48,0,0,0,.146.387.544.544,0,0,0,.365.124h.584v.832a2.387,2.387,0,0,1-.992.175,1.2,1.2,0,0,1-.832-.3,1.489,1.489,0,0,1-.452-.8h-.1a2.639,2.639,0,0,1-1.073.846A3.592,3.592,0,0,1,19.106-6.7Zm.336-1.065A2.567,2.567,0,0,0,20.522-8a2.023,2.023,0,0,0,.832-.693,1.9,1.9,0,0,0,.321-1.116v-.555a9.959,9.959,0,0,0-2.824.3,1.147,1.147,0,0,0-.941,1.131,1.017,1.017,0,0,0,.387.9A2,2,0,0,0,19.442-7.766Zm12.025-8.713a.626.626,0,0,0-.715.7v1.226h1.474v1.065H30.752v6.611H29.468v-6.611H26.695v6.611H25.411v-6.611H24.287v-1.065h1.124v-1.226a2.038,2.038,0,0,1,.379-1.262,1.507,1.507,0,0,1,1.284-.5,3.507,3.507,0,0,1,.591.051,3.044,3.044,0,0,1,.5.124v.89H27.41a.626.626,0,0,0-.715.7v1.226h2.773v-1.226a2.038,2.038,0,0,1,.379-1.262,1.507,1.507,0,0,1,1.284-.5,3.507,3.507,0,0,1,.591.051,3.044,3.044,0,0,1,.5.124v.89Zm1.78-.949h1.284V-16H33.248Zm0,2.875h1.284v7.676H33.248Zm3.24-2.875h1.284V-6.876H36.487ZM41.814-6.7a3.349,3.349,0,0,1-1.766-.467,1.813,1.813,0,0,1-.773-1.693,2.009,2.009,0,0,1,1.313-2.021,10.262,10.262,0,0,1,3.794-.547v-.846A1.346,1.346,0,0,0,44-13.3a2.011,2.011,0,0,0-1.372-.358,2.025,2.025,0,0,0-1.335.35,1.1,1.1,0,0,0-.4.861v.175h-1.24a2.315,2.315,0,0,1-.015-.321,1.776,1.776,0,0,1,.846-1.576,4.076,4.076,0,0,1,2.262-.555,3.407,3.407,0,0,1,2.174.6,2.048,2.048,0,0,1,.744,1.693v4.159a.48.48,0,0,0,.146.387.544.544,0,0,0,.365.124h.584v.832a2.387,2.387,0,0,1-.992.175,1.2,1.2,0,0,1-.832-.3,1.49,1.49,0,0,1-.452-.8h-.1a2.639,2.639,0,0,1-1.073.846A3.592,3.592,0,0,1,41.814-6.7Zm.336-1.065A2.567,2.567,0,0,0,43.23-8a2.023,2.023,0,0,0,.832-.693,1.9,1.9,0,0,0,.321-1.116v-.555a9.959,9.959,0,0,0-2.824.3,1.147,1.147,0,0,0-.941,1.131,1.017,1.017,0,0,0,.387.9A2,2,0,0,0,42.15-7.766Zm7.428,1.051a1.373,1.373,0,0,1-1.153-.467,1.815,1.815,0,0,1-.365-1.153v-5.152h-.934v-1.065h.949l.277-2.131h.992v2.131h1.3v1.065h-1.3v5.035q0,.686.642.686h.657v.846a2.18,2.18,0,0,1-.5.146A3.055,3.055,0,0,1,49.578-6.715ZM51.9-17.427h1.284V-16H51.9Zm0,2.875h1.284v7.676H51.9ZM58.218-6.7a3.4,3.4,0,0,1-2.656-.985,4.407,4.407,0,0,1-.89-3.028,4.407,4.407,0,0,1,.89-3.028,3.4,3.4,0,0,1,2.656-.985,3.4,3.4,0,0,1,2.656.985,4.407,4.407,0,0,1,.89,3.028,4.407,4.407,0,0,1-.89,3.028A3.4,3.4,0,0,1,58.218-6.7Zm0-1.065a2.008,2.008,0,0,0,1.693-.679,3.649,3.649,0,0,0,.525-2.211v-.117a3.649,3.649,0,0,0-.525-2.211,2.008,2.008,0,0,0-1.693-.679,2.008,2.008,0,0,0-1.693.679A3.649,3.649,0,0,0,56-10.772v.117a3.649,3.649,0,0,0,.525,2.211A2.008,2.008,0,0,0,58.218-7.766Zm5.035-6.786h.978l.146,1.036h.1a2.938,2.938,0,0,1,2.583-1.211,2.4,2.4,0,0,1,1.773.62,2.73,2.73,0,0,1,.62,1.992v5.239H68.171v-5.152a1.639,1.639,0,0,0-.409-1.277,1.743,1.743,0,0,0-1.182-.358,2.005,2.005,0,0,0-1.022.27,1.954,1.954,0,0,0-.744.781,2.471,2.471,0,0,0-.277,1.2v4.539H63.253Zm11.266,0h1.328L77.029-10.2q.117.452.255,1.022t.2.788h.073l.379-1.81,1.007-4.349H80.5L81.568-10.2q.1.452.226,1.022t.168.788h.073q.044-.219.175-.773t.263-1.036l1.168-4.349H84.9L82.59-6.876h-1.4l-1.109-4.582-.35-1.576h-.058q-.044.19-.139.671t-.2.9L78.241-6.876H76.825Zm11.442-2.875h1.284V-16H85.961Zm0,2.875h1.284v7.676H85.961Zm4.977,7.837a1.373,1.373,0,0,1-1.153-.467,1.816,1.816,0,0,1-.365-1.153v-5.152h-.934v-1.065h.949l.277-2.131H90.7v2.131H92v1.065H90.7v5.035q0,.686.642.686H92v.846a2.181,2.181,0,0,1-.5.146A3.054,3.054,0,0,1,90.937-6.715Zm2.32-10.712h1.284v3.736h.1a2.873,2.873,0,0,1,2.423-1.036q2.393,0,2.393,2.612v5.239H98.176v-5.152a1.639,1.639,0,0,0-.409-1.277,1.743,1.743,0,0,0-1.182-.358,2.005,2.005,0,0,0-1.022.27,1.954,1.954,0,0,0-.744.781,2.471,2.471,0,0,0-.277,1.2v4.539H93.258Z" transform="translate(181.763 266.477)" fill="#fff"/>
    <path id="Path_11724" data-name="Path 11724" d="M2.144-22.416h4.4L8.41-15.061q.156.545.36,1.605t.263,1.411h.1q.058-.37.243-1.45t.3-1.566l1.868-7.355h4.2V-9.067H12.924v-8.5q0-.37.049-1.129t.068-1.012h-.1l-.409,1.576-2.3,9.068H7.553l-2.3-9.068-.409-1.576h-.1q.019.253.068,1.031t.049,1.109v8.5H2.144Zm16.287-.72H21.1v2.413H18.431Zm0,3.833H21.1V-9.067H18.431Zm5.409,0h2.277l.195,1.343h.136a3.89,3.89,0,0,1,3.191-1.576,3.464,3.464,0,0,1,2.481.856,3.63,3.63,0,0,1,.9,2.744v6.869H30.359v-6.3a1.842,1.842,0,0,0-.448-1.382,1.845,1.845,0,0,0-1.323-.428,1.956,1.956,0,0,0-1.489.632,2.2,2.2,0,0,0-.593,1.566v5.915H23.84ZM39.154-8.834a3.648,3.648,0,0,1-3.016-1.333,6.373,6.373,0,0,1-1.07-4.038,6.265,6.265,0,0,1,1.08-3.989,3.5,3.5,0,0,1,2.87-1.343,4.239,4.239,0,0,1,1.819.37,2.93,2.93,0,0,1,1.236,1.051h.117v-5.02h2.666V-9.067H42.579L42.4-10.41h-.136a3.128,3.128,0,0,1-1.3,1.177A4.07,4.07,0,0,1,39.154-8.834Zm.856-2.316q2.179,0,2.179-2.86v-.311q0-2.9-2.179-2.9a1.935,1.935,0,0,0-1.693.71,3.717,3.717,0,0,0-.506,2.15v.35a3.717,3.717,0,0,0,.506,2.15A1.935,1.935,0,0,0,40.01-11.15ZM51.7-8.834a5.607,5.607,0,0,1-3.357-.885,2.781,2.781,0,0,1-1.216-2.364l.019-.234H49.74v.136a1.061,1.061,0,0,0,.613.983,3.173,3.173,0,0,0,1.45.3,3.849,3.849,0,0,0,1.362-.214.736.736,0,0,0,.564-.7.873.873,0,0,0-.574-.817,9.13,9.13,0,0,0-1.8-.545,16.471,16.471,0,0,1-2.063-.593,3.533,3.533,0,0,1-1.382-.944,2.448,2.448,0,0,1-.584-1.712,2.585,2.585,0,0,1,1.255-2.306,5.894,5.894,0,0,1,3.24-.808,5.7,5.7,0,0,1,3.055.749,2.3,2.3,0,0,1,1.206,2.033l-.019.448H53.476v-.039a.967.967,0,0,0-.486-.846,2.437,2.437,0,0,0-1.265-.282,3.085,3.085,0,0,0-1.265.214.666.666,0,0,0-.467.6.763.763,0,0,0,.535.72,9.063,9.063,0,0,0,1.722.467,18.548,18.548,0,0,1,2.121.584,3.486,3.486,0,0,1,1.42.953,2.556,2.556,0,0,1,.6,1.79Q56.394-8.834,51.7-8.834Zm6.733-14.3H61.1v5.02h.136a3.705,3.705,0,0,1,3-1.42,3.464,3.464,0,0,1,2.481.856,3.63,3.63,0,0,1,.9,2.744v6.869H64.956v-6.3a1.842,1.842,0,0,0-.448-1.382,1.845,1.845,0,0,0-1.323-.428,1.956,1.956,0,0,0-1.489.632,2.2,2.2,0,0,0-.593,1.566v5.915H58.438Zm14.244,14.3A4.02,4.02,0,0,1,70.5-9.457a2.452,2.452,0,0,1-.992-2.257,2.888,2.888,0,0,1,1.615-2.792,10.228,10.228,0,0,1,4.573-.827v-.72a1.622,1.622,0,0,0-.3-1.051,1.416,1.416,0,0,0-1.138-.37,2.253,2.253,0,0,0-1.275.272.783.783,0,0,0-.379.642v.292H70.035a3.085,3.085,0,0,1-.019-.428,2.39,2.39,0,0,1,1.138-2.063,5.271,5.271,0,0,1,3.026-.778,4.871,4.871,0,0,1,3.143.856,3.016,3.016,0,0,1,1.041,2.471v4.514a.64.64,0,0,0,.195.516.725.725,0,0,0,.486.165h.545v1.868a3.416,3.416,0,0,1-1.537.311,2.385,2.385,0,0,1-1.333-.35,1.752,1.752,0,0,1-.73-.992h-.117a3.814,3.814,0,0,1-1.294,1A4.514,4.514,0,0,1,72.681-8.834Zm.837-2.1a2.03,2.03,0,0,0,1.654-.632,2.55,2.55,0,0,0,.525-1.683v-.311q-3.483,0-3.483,1.557a1,1,0,0,0,.321.778A1.423,1.423,0,0,0,73.518-10.935ZM81.146-19.3h2.277l.214,1.654h.136a3.7,3.7,0,0,1,.856-1.382,1.908,1.908,0,0,1,1.382-.506,2.8,2.8,0,0,1,.652.068,2.164,2.164,0,0,1,.36.107v2.491h-.739a2.307,2.307,0,0,0-1.887.71,3.336,3.336,0,0,0-.584,2.15v4.942H81.146ZM92.938-8.834a4.809,4.809,0,0,1-3.687-1.3,5.775,5.775,0,0,1-1.216-4.047,5.775,5.775,0,0,1,1.216-4.047,4.809,4.809,0,0,1,3.687-1.3,4.245,4.245,0,0,1,3.405,1.313,6.086,6.086,0,0,1,1.129,4.038v.623H90.739a3.441,3.441,0,0,0,.545,2.014,2.014,2.014,0,0,0,1.693.652,1.937,1.937,0,0,0,1.352-.467,1.694,1.694,0,0,0,.516-1.323h2.627A3.426,3.426,0,0,1,96.226-9.8,5.23,5.23,0,0,1,92.938-8.834Zm1.771-6.5q0-2.121-1.771-2.121a2.049,2.049,0,0,0-1.528.525,2.622,2.622,0,0,0-.632,1.6Z" transform="translate(287.359 268.668)" fill="#fff"/>
  </g>
</svg>
